<?xml version="1.0" encoding="UTF-8"?> <svg xmlns="http://www.w3.org/2000/svg" viewBox="0 0 481.46 112.4"><defs><style>.cls-1{fill:#1d1d1b;}.cls-2{fill:none;stroke:#1d1d1b;stroke-miterlimit:10;stroke-width:3px;}</style></defs><title>Asset 3</title><g id="Layer_2" data-name="Layer 2"><g id="Layer_1-2" data-name="Layer 1"><path class="cls-1" d="M74.61,93.81l.13.13,4.16,13.29,3.83-13,.13-.13h3l.13.13,3.82,13L94,93.94l.13-.13h3.15l.13.13-5.93,17.94-.13.13h-3l-.13-.13-3.88-12.3-3.9,12.3-.13.13H77.4l-.14-.13L71.34,93.94l.13-.13Z"></path><path class="cls-1" d="M104.88,93.81l.13.13v17.94l-.13.13h-2.76l-.13-.13V93.94l.13-.13Z"></path><path class="cls-1" d="M114.24,93.81l.26.13,10,13v-13l.13-.13h2.78l.13.13v17.94l-.13.13h-2.91l-.26-.13-10-13v13l-.13.13h-2.76l-.13-.13V93.94l.13-.13Z"></path><path class="cls-1" d="M148.82,98.83a9.36,9.36,0,0,0-6.11-2.24,6.32,6.32,0,0,0,0,12.64,9.31,9.31,0,0,0,6.11-2.24l.13.14v3.43a10.38,10.38,0,0,1-6.24,1.84,9.49,9.49,0,1,1,0-19A10.39,10.39,0,0,1,149,95.27V98.7Z"></path><path class="cls-1" d="M157.73,93.81l.13.13v6.76h9.23V93.94l.13-.13H170l.13.13v17.94L170,112h-2.79l-.13-.13v-8.14h-9.23v8.14l-.13.13H155l-.13-.13V93.94l.13-.13Z"></path><path class="cls-1" d="M188,93.81l.13.13v2.79l-.13.12h-8.58v3.85h6.37l.13.13v2.78l-.13.13h-6.37V109h9.12l.13.13v2.78l-.13.13h-12l-.13-.13V93.94l.13-.13Z"></path><path class="cls-1" d="M200.56,97.92a2.83,2.83,0,0,0-2.21-1.33,1.53,1.53,0,0,0-1.59,1.67c0,2.39,7.83,2.31,7.83,8.29a6.06,6.06,0,0,1-11.71,2l2.4-1.74h.26c.73,1.71,1.74,2.44,3.07,2.44a2.51,2.51,0,0,0,2.6-2.68c0-3.43-7.83-3.22-7.83-8.29a4.82,4.82,0,0,1,5-4.84,5.53,5.53,0,0,1,4.78,2.78l-2.31,1.72Z"></path><path class="cls-1" d="M222.27,93.81l.13.13v2.79l-.13.12h-5.65v15l-.13.13h-2.75l-.13-.13v-15H208l-.12-.12V93.94l.12-.13Z"></path><path class="cls-1" d="M239.11,93.81l.13.13v2.79l-.13.12h-8.58v3.85h6.37l.13.13v2.78l-.13.13h-6.37V109h9.13l.13.13v2.78l-.13.13h-12l-.13-.13V93.94l.13-.13Z"></path><path class="cls-1" d="M250.14,93.81c3.77,0,6.11,2.32,6.11,5.31a4.77,4.77,0,0,1-2.91,4.52l6.08,8.24-.13.13h-3.56l-.13-.13L250,104.42h-1.93v7.46L248,112H245.2l-.13-.13V93.94l.13-.13Zm-2.06,7.59h2.06c1.69,0,2.67-.83,2.67-2.28s-1-2.27-2.67-2.27h-2.06Z"></path><path class="cls-1" d="M285.29,93.81l.13.13v2.79l-.13.12h-8.58v3.85h6.37l.13.13v2.78l-.13.13h-6.37V109h9.13l.12.13v2.78l-.12.13h-12l-.13-.13V93.94l.13-.13Z"></path><path class="cls-1" d="M294.26,93.81l.26.13,10,13v-13l.13-.13h2.78l.13.13v17.94l-.13.13h-2.91l-.26-.13-10-13v13l-.13.13h-2.76l-.13-.13V93.94l.13-.13Z"></path><path class="cls-1" d="M329.36,98.44A10.46,10.46,0,0,0,323,96.59a6.32,6.32,0,1,0,.13,12.64,9,9,0,0,0,3.48-.67v-4h-3.2l-.13-.13v-2.76l.13-.13h6.11l.13.13v8.87a11.71,11.71,0,0,1-6.52,1.87c-5.59,0-10-4.16-10-9.49A9.63,9.63,0,0,1,323,93.42a12,12,0,0,1,6.5,1.48v3.41Z"></path><path class="cls-1" d="M338.48,93.81l.11.11v15h7.83l.1.13v2.81l-.1.1H335.68l-.11-.1v-18l.11-.11Z"></path><path class="cls-1" d="M360.17,93.81l.13.13,7.1,17.94-.13.13h-3.2l-.13-.13-1.51-3.95H355l-1.53,3.95-.13.13h-3.2l-.13-.13,7.12-17.94.13-.13Zm-4.06,11.1h5.23l-2.63-7Z"></path><path class="cls-1" d="M375,93.81l.26.13,10,13v-13l.13-.13h2.79l.13.13v17.94l-.13.13h-2.92l-.26-.13-10-13v13l-.13.13h-2.75l-.13-.13V93.94l.13-.13Z"></path><path class="cls-1" d="M400.78,93.81c5.59,0,9.62,4.06,9.62,9.1s-4,9.1-9.62,9.1h-6.11l-.13-.13V93.94l.13-.13ZM397.55,109h3.23a6.06,6.06,0,1,0,0-12.12h-3.23Z"></path><path class="cls-1" d="M9.85,1.14l.3.3v44H33l.31.38V54l-.31.3H1.64l-.3-.3V1.44l.3-.3Z"></path><path class="cls-1" d="M97.56,27.74A28.13,28.13,0,1,1,69.43,0,27.88,27.88,0,0,1,97.56,27.74Zm-46.21,0a18.09,18.09,0,1,0,36.17,0,18.09,18.09,0,1,0-36.17,0Z"></path><path class="cls-1" d="M122.1,1.14l.76.38,29.26,38.15V1.52l.38-.38h8.13l.38.38V54l-.38.38h-8.51l-.76-.38L122.1,15.81V54l-.38.38h-8.06l-.38-.38V1.52l.38-.38Z"></path><path class="cls-1" d="M224.24,14.67c-5.24-4-12.16-5.4-18.62-5.4-11.17,0-18.84,8.21-18.84,18.47s7.9,18.47,19.22,18.47a25.85,25.85,0,0,0,10.19-2V32.53h-9.35l-.38-.38V24.09l.38-.38H224.7l.38.38V50A34.49,34.49,0,0,1,206,55.48c-16.34,0-29.26-12.16-29.26-27.74C176.74,12.54,189.28,0,205.62,0c7.22,0,13.76,1,19,4.33v10Z"></path><path class="cls-1" d="M283.3,1.14c10.33,0,17.4,5.32,17.4,14a10.16,10.16,0,0,1-4.86,9.05A14.36,14.36,0,0,1,305.56,38c0,9.73-7.6,16.34-17.7,16.34H270.15l-.38-.38V1.52l.38-.38Zm-4.72,20.52h4.72c5.09,0,7.37-1.9,7.37-6.08,0-3.65-2.28-5.55-7.37-5.55h-4.72Zm0,23.79h9c4.94,0,8.06-2.58,8.06-7.45,0-4.63-3.12-7.45-8.06-7.45h-9Z"></path><path class="cls-1" d="M343.94,1.14l.38.38L365.07,54l-.38.38h-9.35L355,54l-4.4-11.55H328.89L324.41,54l-.38.38h-9.35L314.3,54,335.13,1.52l.38-.38ZM332.09,33.59h15.27l-7.67-20.52Z"></path><path class="cls-1" d="M392.89,1.14c11,0,17.86,6.76,17.86,15.51a14,14,0,0,1-8.52,13.22L420,54l-.38.38H409.23l-.38-.38L392.51,32.15h-5.63V54l-.38.38h-8.05l-.38-.38V1.52l.38-.38Zm-6,22.19h6c4.94,0,7.82-2.43,7.82-6.68S397.83,10,392.89,10h-6Z"></path><path class="cls-1" d="M441.83,1.14l.76.38,29.26,38.15V1.52l.38-.38h8.13l.38.38V54l-.38.38h-8.51l-.76-.38L441.83,15.81V54l-.38.38h-8.06L433,54V1.52l.38-.38Z"></path><line class="cls-2" y1="73.02" x2="481.46" y2="73.02"></line></g></g></svg> 