<?xml version="1.0" encoding="UTF-8"?> <svg xmlns="http://www.w3.org/2000/svg" viewBox="0 0 44.67 21.19"><title>Etsy</title><g id="Layer_2" data-name="Layer 2"><g id="Layer_1-2" data-name="Layer 1"><path d="M4.79,1.62v6s2.12,0,3.25-.08c.89-.16,1.05-.25,1.22-1.14l.33-1.3h1L10.39,8l.09,2.92h-1L9.26,9.74C9,8.93,8.69,8.76,8,8.69,7.23,8.6,4.79,8.6,4.79,8.6v5c0,1,.49,1.38,1.62,1.38H9.83a2.5,2.5,0,0,0,2.76-1.62l.89-2h.82c-.09.41-.49,4-.57,4.79,0,0-3.09-.07-4.39-.07H3.49L0,16.23v-.88l1.13-.25c.82-.16,1.06-.41,1.06-1,0,0,.09-2.2.09-5.86S2.2,2.35,2.2,2.35c0-.73-.25-.89-1.07-1.06L0,1.05V.16L3.41.23h6.5C11.21.23,13.4,0,13.4,0s-.08,1.37-.17,4.62h-.89L12,3.48C11.7,2,11.21,1.3,10.31,1.3H5.2C4.79,1.3,4.79,1.37,4.79,1.62Zm13.15.65h1V5.68l3.34-.16-.17,1.54-3.25-.25v6c0,1.7.57,2.36,1.55,2.36a2.11,2.11,0,0,0,1.78-.9l.49.57a3.37,3.37,0,0,1-3.17,1.7,2.71,2.71,0,0,1-2.93-2.83V6.9H14.62V6.09C16.25,5.92,17.46,5,17.94,2.27Zm7,10.47.65,1.55a2,2,0,0,0,2.1,1.3c1.39,0,2-.73,2-1.62,0-2.77-5.45-2-5.45-5.69,0-2.11,1.7-3.09,3.9-3.09a9.46,9.46,0,0,1,3.17.49A15.19,15.19,0,0,0,31,8.36l-.8.08-.57-1.63A1.77,1.77,0,0,0,28,6.08c-1,0-1.95.41-1.95,1.47,0,2.51,5.61,2,5.61,5.68,0,2.12-1.87,3.25-4.15,3.25a11.05,11.05,0,0,1-3.41-.65,13.3,13.3,0,0,0,0-3.09Zm6.33,7.8a29.54,29.54,0,0,0,.57-3.09l.89-.08.33,1.71a.86.86,0,0,0,1,.73c1.06,0,2.44-.65,3.74-2.92-.58-1.38-2.28-5.84-3.83-9.26-.4-.9-.48-1-1-1.14l-.42-.16V5.51l2.45.09,3-.16v.81l-.74.16c-.57.08-.8.4-.8.73a.63.63,0,0,0,.08.33c.15.49,1.46,4.14,2.44,6.58.8-1.71,2.35-5.53,2.59-6.18a2.12,2.12,0,0,0,.16-.64c0-.42-.24-.66-.8-.81l-.58-.17V5.44l2.28.08,2.11-.08v.81l-.4.32c-.82.33-.9.41-1.22,1.06L39.48,16c-2.12,4.8-4.32,5.2-5.86,5.2A4.26,4.26,0,0,1,31.27,20.54Z"></path></g></g></svg> 