<?xml version="1.0" encoding="UTF-8"?> <svg xmlns="http://www.w3.org/2000/svg" viewBox="0 0 196.24 131.85"><title>Asset 1</title><g id="Layer_2" data-name="Layer 2"><g id="mcs-logo"><path d="M91.37,131.77a3,3,0,0,1-1.43,0c-.58.11-1-.37-1.61-.32-.32-.19-.65-.36-1-.58a3,3,0,0,1-.43-.5,3.92,3.92,0,0,1-.52-.71c-.12-.26-.12-.58-.33-.82a.33.33,0,0,1,0-.32c.24-.34-.28-.7.05-1a4.28,4.28,0,0,1-.06-1.12,5.7,5.7,0,0,0,0-2.1c0-.28.24-.56,0-.81.23-.31,0-.67.09-1s-.06-.54,0-.81-.06-.74.14-1.08c0,0-.06-.13-.08-.2s0-.4.15-.42c.44-.07.89-.12,1.33-.16,0,0,.14.09.14.14a2.48,2.48,0,0,1,0,1.21c-.14.34,0,.74-.16,1.08.23.25,0,.55.08.81.17.89-.07,1.78,0,2.66a6.59,6.59,0,0,1-.1.76c0,.22.08.47,0,.66a.63.63,0,0,0,.06.49c.09.24.05.52.12.77s-.18.42,0,.62.4.79.79,1.06.49.45.89.4c.12,0,.25.15.39.2a.87.87,0,0,0,.41.11c.34,0,.68-.07,1-.06s.39.09.6-.07a2.1,2.1,0,0,1,.63-.18c.07-.36.46-.46.62-.75A4.87,4.87,0,0,0,93.7,128c0-.4.07-.81.1-1.21,0,0,0-.07,0-.11.06-.34.38-.63.14-1,.28-.32.08-.72.17-1.08a6.9,6.9,0,0,0,.13-1.64,3.55,3.55,0,0,1,.06-1.21c.09-.26,0-.59-.06-.89s-.15-.74.06-1.1c0-.06,1.42.22,1.45.44a1.86,1.86,0,0,1,0,1c-.07.15,0,.37,0,.55,0,.41.16.8,0,1.22s.12.81-.12,1.2a.67.67,0,0,0,0,.44c.13.45-.2.88-.08,1.31s-.16.89-.09,1.32a9.67,9.67,0,0,1-.12,1.32c0,.46-.32.89-.37,1.37-.35.13-.31.58-.59.77s-.69.43-1,.63a2.27,2.27,0,0,1-.6.26C92.34,131.68,92,131.7,91.37,131.77Z"></path><path d="M43.91,118.93a7.13,7.13,0,0,1,1.9.22,4.18,4.18,0,0,1,1.75,1.25.61.61,0,0,1,.13.33,8,8,0,0,1,0,.85c0,.18-.45.74-.6.71a3.79,3.79,0,0,1-.77-.29s-.09-.13-.1-.2c0-.33,0-.65,0-1,0-.51-.15-.78-.65-.84a9.21,9.21,0,0,0-1.82,0,1.54,1.54,0,0,0-.73.39c-.43.38-.84.77-1.23,1.19a3,3,0,0,0-.42.72.5.5,0,0,0,0,.36,4.23,4.23,0,0,0,.38,1,1.82,1.82,0,0,0,1.46.71,10.39,10.39,0,0,0,1.58,0,3.88,3.88,0,0,1,2.94,1.41c.08.09.19.21.18.31,0,.53.35,1,.3,1.52A7,7,0,0,1,48,129a3.17,3.17,0,0,1-1,1.58,3.85,3.85,0,0,1-1.7.85,9.43,9.43,0,0,0-1.39.35,1.68,1.68,0,0,1-1.15,0A6.89,6.89,0,0,1,41,131a5,5,0,0,1-1.57-1.79,1.61,1.61,0,0,1-.26-.91c0-.37,0-.74,0-1.1s.06-.36.45-.42a2.32,2.32,0,0,0,.58-.13.5.5,0,0,1,.68.55.56.56,0,0,1-.06.23,1.11,1.11,0,0,0-.15,1,2.54,2.54,0,0,0,.61,1.28c.25.21.46.46.7.68a2.8,2.8,0,0,0,1.21.46c.31-.34.76-.17,1.14-.34a3.37,3.37,0,0,0,2-1.86,2.27,2.27,0,0,0,.23-.92c0-.29,0-.57,0-.86a1.49,1.49,0,0,0-.25-1c-.35-.47-.88-.53-1.34-.77,0,0-.07,0-.1,0a.78.78,0,0,1-.58.11c-.15,0-.21-.17-.42-.12-.38.08-.76-.12-1.16-.12-.22,0-.44-.17-.67-.21-.6-.09-1-.58-1.48-.8-.24-.45-.71-.8-.63-1.39a2.09,2.09,0,0,0,0-.25,1.48,1.48,0,0,1,.65-1.56c.3-.77,1.11-1,1.66-1.53a1.3,1.3,0,0,1,1-.36C43.45,119,43.74,118.93,43.91,118.93Z"></path><path d="M67.12,123.94c0,.31,0,.62,0,.92s0,.72-.06,1.07a2.52,2.52,0,0,1-.07,1,1.19,1.19,0,0,0,0,.46c0,.44,0,.89,0,1.33,0,.8,0,1.6,0,2.4a1.19,1.19,0,0,1-.24.62c-.06.09-.29.11-.42.07a2,2,0,0,1-.61-.28.7.7,0,0,1-.36-.66c0-.76,0-1.53,0-2.29,0-.43.05-.87.06-1.3a3.89,3.89,0,0,1,.06-1.18,1.08,1.08,0,0,0,0-.18c-.07-1.2.1-2.41,0-3.62a1,1,0,0,1,.08-.55c.05-.1,0-.23-.17-.22a3.29,3.29,0,0,0-.63,0c-.19,0-.34-.13-.53,0s-.24,0-.36-.06l-2.11-.27a2.39,2.39,0,0,1-1.49-.72c-.14-.13-.13-.16.06-.27a2.16,2.16,0,0,1,1.18-.12c.12,0,.25,0,.38.06a5.39,5.39,0,0,1,1.07.1,2.31,2.31,0,0,0,.78.06l3.67-.26a12,12,0,0,1,1.79-.06c.5,0,1-.21,1.47,0a6.08,6.08,0,0,1,1.07-.29c.29,0,.63-.09.87.2.1.12.14.24,0,.36a1.24,1.24,0,0,1-1,.62c-.31,0-.57.2-.91.11a3.13,3.13,0,0,0-.9.09c-.33,0-.66,0-1,.05s-.62-.06-.9.14c0,0-.14,0-.21,0a3.47,3.47,0,0,0-.45-.06c-.28,0-.27,0-.27.29,0,.81,0,1.61,0,2.41Z"></path><path d="M115.09,131.85a14.15,14.15,0,0,1-1.58-.29c-.29-.09-.57-.28-.88-.36-.09,0-.22-.09-.25-.06-.25.25-.48,0-.72,0a.22.22,0,0,1-.19-.09c-.09-.21-.31-.28-.45-.44a.51.51,0,0,1-.2-.43c0-.26,0-.54.11-.8,0-.08,0-.22,0-.33,0-.29-.1-.59.1-.86-.22-.37.07-.73,0-1.1s0-.75,0-1.11a2,2,0,0,1-.08-.86,3.41,3.41,0,0,0,0-1.15,5.5,5.5,0,0,0,0-1.22,8.12,8.12,0,0,1-.09-1.47c0-.18,0-.36-.08-.54s.12-.36,0-.54a.54.54,0,0,1,.19-.18c.06,0,.15,0,.22,0s.29.22.5,0,.28.12.43.14a3.38,3.38,0,0,0,1-.11,5,5,0,0,1,1.73,0,.45.45,0,0,0,.16,0,1.37,1.37,0,0,1,1.06.31c.42-.1.67.23,1,.37a9.12,9.12,0,0,1,2,1.33,3.69,3.69,0,0,1,1.07,1.61c.2.59.37,1.19.54,1.79a2.36,2.36,0,0,1,0,.38c0,.21-.07.44.1.64,0,0,0,.07,0,.11a7.14,7.14,0,0,1-.16,1.23,5.13,5.13,0,0,1-1.13,2.12,4.34,4.34,0,0,1-1.83,1.25,5,5,0,0,0-.64.26,2.29,2.29,0,0,1-.89.19A7.44,7.44,0,0,0,115.09,131.85ZM114,121.19a3.93,3.93,0,0,0-1.56.25c-.12,0-.18.08-.18.21s0,.41,0,.61,0,.44.06.65,0,.37,0,.55c0,.35,0,.7,0,1.05s.1.72.11,1.08c0,.74,0,1.48,0,2.22a.88.88,0,0,1,0,.28,5.25,5.25,0,0,0-.11,1.58.33.33,0,0,0,.16.33,2.78,2.78,0,0,0,.6.34,4.34,4.34,0,0,0,1.74.36,5.19,5.19,0,0,1,.56,0,.75.75,0,0,0,.26,0c.66-.32,1.34-.62,2-1a2.36,2.36,0,0,0,.71-.73c.21-.33.27-.75.49-1.07s.12-.71.28-1c-.14-.21-.07-.4,0-.63a1.93,1.93,0,0,0-.06-.67,8.79,8.79,0,0,0-.19-.89,6.79,6.79,0,0,0-.46-1.31,2.9,2.9,0,0,0-1-1.2,5,5,0,0,0-.87-.43,4.42,4.42,0,0,0-1-.36C115.06,121.26,114.53,121.24,114,121.19Z"></path><path d="M135.94,128.91v-1.73c0-.17-.05-.36.1-.5-.23-.17,0-.32,0-.47s.2-.35,0-.54c0,0,0-.14,0-.22a1.34,1.34,0,0,0,.07-.51c-.09-.32.15-.68-.11-1,.16-.29,0-.59,0-.88a4.39,4.39,0,0,0,0-.88,2.29,2.29,0,0,1,.08-.87c0-.15.07-.3.12-.45a.52.52,0,0,0,0-.35c-.07-.28.12-.47.4-.5a2.36,2.36,0,0,0,.45-.08.41.41,0,0,1,.56.43,5.48,5.48,0,0,1,0,.7c0,.21.14.43-.06.64s0,.23,0,.35c0,.79,0,1.59,0,2.39a3,3,0,0,0,.08.51s0,0,0,0c-.2.45,0,1-.13,1.39a2.38,2.38,0,0,0-.09.69c0,1,0,1.92,0,2.87a2.34,2.34,0,0,0,.09.69,1.06,1.06,0,0,1-.3,1.14c-.07.06-.11.07-.19,0-.25-.19-.59-.25-.77-.54a.27.27,0,0,0-.2-.09c-.17,0-.19-.1-.19-.23Z"></path><path d="M164.36,125.48a5.05,5.05,0,0,1-.49,2.16,9.47,9.47,0,0,0-.4,1,2.35,2.35,0,0,1-.6,1,10,10,0,0,0-1,1.1c-.29.42-.74.47-1.14.64-.05,0-.12,0-.17,0a3.92,3.92,0,0,1-2,.44,4.41,4.41,0,0,1-2.14-.69,1.94,1.94,0,0,1-.48-.54c-.12-.14-.23-.3-.35-.45-.39-.49-.47-1.14-.83-1.64a.31.31,0,0,0-.13-.45c-.1-.06,0-.13,0-.21a6,6,0,0,0,.16-1c0-.21-.22-.37-.08-.63s0-.47.07-.71.07-.38.1-.58,0-.18,0-.2c.33-.21.28-.59.36-.88s.39-.55.19-.9c0,0,0-.06.05-.09a5.3,5.3,0,0,1,.83-1.28c.22-.21.4-.47.61-.7,0-.06.18-.12.22-.09s.15,0,.23,0a4,4,0,0,1,.57-.32c.07,0,.19,0,.28,0s0-.2,0-.25a1.25,1.25,0,0,1,.48-.23,8.81,8.81,0,0,0,1.25-.12,2.07,2.07,0,0,1,1.14.3c.1,0,.21,0,.29.09a1.22,1.22,0,0,1,.71.48.47.47,0,0,0,.14.14,2.74,2.74,0,0,1,1,1.4,1.11,1.11,0,0,0,.25.48,3.15,3.15,0,0,1,.61,1.49A10.4,10.4,0,0,1,164.36,125.48Zm-1.13-.33a6.53,6.53,0,0,1-.12-.68c0-.16,0-.33-.15-.46a.43.43,0,0,1-.08-.24,2.72,2.72,0,0,0-.33-1.08,4.79,4.79,0,0,1-.34-.68,1.66,1.66,0,0,0-.87-.84.85.85,0,0,0-.31-.09c-.12,0-.27,0-.31-.16,0,0-.17-.08-.24-.06-.34.14-.82,0-1,.51a.21.21,0,0,1-.27.14,1.92,1.92,0,0,0-1.3.33,4,4,0,0,0-1.17,1.51c-.18.47-.34.94-.49,1.42a5.51,5.51,0,0,0-.22.89,13,13,0,0,0-.13,1.87,3.6,3.6,0,0,0,.24,1.39,3.29,3.29,0,0,0,.41.7,2.91,2.91,0,0,0,.52.63,2.13,2.13,0,0,0,.74.46c.22.06.43.39.72.14.31.26.58-.08.87-.07s.38-.26.63-.32a3.13,3.13,0,0,0,1.64-1.18c.11-.12.18-.28.3-.39a3,3,0,0,0,.68-1.21q.14-.41.3-.81a5.22,5.22,0,0,0,.14-.79.93.93,0,0,0,0-.44C163.09,125.48,163.2,125.29,163.23,125.15Z"></path><path d="M45.21,10.71c0,.29,0,.58,0,.86s-.07.67-.1,1,.06.64-.1.95c-.06.11,0,.28,0,.43,0,.41,0,.83,0,1.24,0,.75-.06,1.5-.12,2.24a1.2,1.2,0,0,1-.24.57c-.06.08-.28.09-.4.05a2,2,0,0,1-.56-.28.67.67,0,0,1-.31-.64c.06-.71.07-1.42.12-2.13,0-.4.08-.81.1-1.21a4.14,4.14,0,0,1,.1-1.11.42.42,0,0,0,0-.16c0-1.13.19-2.25.11-3.38a.92.92,0,0,1,.1-.51c.05-.09,0-.22-.15-.21a2.91,2.91,0,0,0-.59,0c-.18,0-.31-.14-.5,0s-.22-.05-.33-.07l-2-.33A2.37,2.37,0,0,1,39,7.25c-.12-.13-.11-.16.08-.25a2.05,2.05,0,0,1,1.1-.07,2.21,2.21,0,0,1,.35.08,4.63,4.63,0,0,1,1,.13,2,2,0,0,0,.73.08l3.44-.1a13.45,13.45,0,0,1,1.68,0c.45.06.92-.16,1.37.08a5.09,5.09,0,0,1,1-.23c.26,0,.59-.06.8.22a.25.25,0,0,1,0,.34,1.19,1.19,0,0,1-.93.54c-.29,0-.54.16-.85.07a2.41,2.41,0,0,0-.84,0c-.31,0-.62,0-.92,0a1.51,1.51,0,0,0-.84.1c-.05,0-.14,0-.21,0s-.27-.06-.41-.07-.25,0-.27.27c0,.74-.09,1.49-.14,2.24Z"></path><path d="M61.81,9.44c0-.65,0-1.29,0-1.93,0-.11-.08-.26,0-.33A.64.64,0,0,1,62.3,7H63a.34.34,0,0,1,.38.28,1.82,1.82,0,0,1,0,.33V9.33a2.1,2.1,0,0,1,0,.61,1,1,0,0,0,.07.56.39.39,0,0,1,0,.26,1.41,1.41,0,0,0,0,1c0,.18-.12.4,0,.58v1.65c-.18.16,0,.38-.09.57a1.11,1.11,0,0,0,0,.6c.09.6-.06,1.2,0,1.8a.69.69,0,0,1-.41.63c-.14.1-.28.19-.38-.07,0-.09-.2-.13-.32-.18-.38-.15-.42-.19-.42-.57,0-1.12,0-2.23,0-3.35a2.43,2.43,0,0,0,0-.27c0-.47,0-.43-.39-.43h-.83c-.25,0-.5,0-.75,0s-.48,0-.72,0-.6.09-.91.11-.58,0-.87,0c-.13,0-.15.08-.15.18a1.62,1.62,0,0,1,0,.54c-.07.19,0,.33,0,.49s0,.29,0,.38a.88.88,0,0,0-.07.53,2.83,2.83,0,0,0,0,.65c0,.21-.13.39,0,.61s0,.23-.1.35a.63.63,0,0,0,0,.49,1.53,1.53,0,0,1-.09.78.4.4,0,0,1-.66.17,1.94,1.94,0,0,0-.56-.31c-.29-.14-.36-.22-.28-.49s-.06-.4.09-.57c-.27-.15.07-.33,0-.53s0-.4,0-.61a3,3,0,0,0-.08-.41c0-.07,0-.14,0-.21s.48-.09.25-.42.09-.33.07-.5,0-.41,0-.61c0-.8,0-1.61,0-2.42,0-.55.09-1.11.1-1.67,0-.3-.08-.6-.1-.9s0-.58,0-.88c0-.06-.06-.12-.08-.19s0-.17.13-.17h1.09a.27.27,0,0,1,.29.21,6.83,6.83,0,0,1,.11.79c.05.61.09,1.22.11,1.83,0,.36-.06.71-.09,1.07,0,.21,0,.43,0,.65s.19.37.36.27a1.18,1.18,0,0,1,.64-.09,2.71,2.71,0,0,0,.7,0c.2-.06.4.06.58-.07s.23,0,.36,0,.27.08.36,0a1.94,1.94,0,0,1,1-.07s.07.06.09.06.34,0,.45-.12.06-.26.06-.4C61.82,10.64,61.81,10,61.81,9.44Z"></path><path d="M132.22,75.92c0-.11,0-.25,0-.32.73-.79,1.25-1.75,2-2.52a7,7,0,0,0,.77-1,.9.9,0,0,0,.2-.49c0-.59.28-1.11.27-1.69a5.42,5.42,0,0,1,.19-1c.07-.35,0-.71.16-1.06a1.61,1.61,0,0,0,.06-.63c0-.22,0-.43,0-.65a2.25,2.25,0,0,1,.09-.74c.09-.2-.06-.37,0-.59a2.61,2.61,0,0,0,.06-.85,5.63,5.63,0,0,1,.22-2.12,4.93,4.93,0,0,1,.25-1.58,12.64,12.64,0,0,1,.48-1.73,10.15,10.15,0,0,1,.34-1.23,1.37,1.37,0,0,0,0-.64c0-.05-.07-.1-.11-.14s-.07,0-.09,0a12.57,12.57,0,0,0-.85,1.11c-.29.46-.59.89-.91,1.32a15.36,15.36,0,0,0-.89,1.46c-.22.37-.4.76-.64,1.11s-.17.78-.54,1c-.17.74-.67,1.35-.9,2a15.28,15.28,0,0,1-.73,1.65c-.18.39-.31.8-.51,1.17s-.41.66-.57,1A15.85,15.85,0,0,1,129.35,71c-.29.45-.76.77-1.09,1.2a4.48,4.48,0,0,1-.6.56,2.19,2.19,0,0,1-1.81.51,1.79,1.79,0,0,1-.93-.49c-.55-.47-.53-.45-1,.16s-.76,1-1.12,1.56a3.42,3.42,0,0,1-1.89,1.13.41.41,0,0,1-.22,0l-.79-.28a4.06,4.06,0,0,1-2-1.7c-.15-.22-.34-.2-.5,0a10.74,10.74,0,0,0-1.19,2.6c0,.1,0,.23-.06.31-.54.89-.83,1.89-1.28,2.82a7,7,0,0,0-.7,1.55,1,1,0,0,1-.24.47,5.75,5.75,0,0,0-.75,1.63c-.12.29-.28.58-.38.88a2.92,2.92,0,0,1-.4.86,2.37,2.37,0,0,0-.32.89,8.13,8.13,0,0,1-1,2.24c-.26.43-.51.86-.76,1.29a4,4,0,0,1-2.09,1.88,2,2,0,0,1-2.35-.48,5.18,5.18,0,0,1-1.36-2.5,10.34,10.34,0,0,1,0-3.33,4.58,4.58,0,0,0,.1-.63,6.28,6.28,0,0,1,.46-1.85c.35-.93.7-1.86,1.06-2.78a5.27,5.27,0,0,1,.25-.7,32.3,32.3,0,0,0,1.47-3.42c.45-1,.77-2.13,1.19-3.18.15-.37.11-.77.35-1.12a4.48,4.48,0,0,0,.5-1.06c.28-.81.72-1.54,1.06-2.32.26-.59.57-1.15.79-1.75a6.76,6.76,0,0,0,.71-1.66c.39-.43.53-1,.93-1.44s.32-.44-.14-.59a3.15,3.15,0,0,0-.42-.09c-.13,0-.3-.05-.39-.14-.43-.38-1-.5-1.44-.92a1,1,0,0,0-.49-.21.38.38,0,0,0-.27.11.59.59,0,0,0-.17.27c-.2.83-.55,1.61-.68,2.45a.67.67,0,0,1-.07.31,20.11,20.11,0,0,0-.71,2.11.57.57,0,0,0-.07.31,2.28,2.28,0,0,1-.23,1c-.24.74-.37,1.51-.61,2.25-.08.23-.16.47-.26.7a1.41,1.41,0,0,0-.22.7.48.48,0,0,1-.08.3c-.33.32-.36.77-.55,1.15a3.83,3.83,0,0,0-.49,1.18,16.43,16.43,0,0,1-1.45,2.36c-.78,1-1.41,2.06-2.15,3.06-.08.42-.49.61-.69,1-.29.53-.63,1-1,1.54a.5.5,0,0,0-.11.29c.06.69-.31,1.32-.27,2a4.49,4.49,0,0,1-.18.93c-.06.31,0,.65-.15,1-.09.78-.35,1.52-.49,2.28a3.81,3.81,0,0,0-.25,1.25c0,.43-.29.81-.22,1.26a10,10,0,0,0-.35,1.55c-.16.46-.26.95-.4,1.43-.19.68-.34,1.37-.52,2.06a6.29,6.29,0,0,0-.2.71,6.11,6.11,0,0,0-.27,1.14,2.33,2.33,0,0,1-.24.92c-.61,1.32-1,2.72-1.76,4-.19.34-.28.73-.47,1.07s-.47.63-.66,1a8.74,8.74,0,0,1-1.76,1.88A1.39,1.39,0,0,0,92,107c-.48.49-1.18.45-1.74.76,0,0-.14,0-.2,0-.37-.22-.83-.22-1.16-.52a4.46,4.46,0,0,1-.84-1.1,2.59,2.59,0,0,1-.46-1.63,1.48,1.48,0,0,0-.15-.94.46.46,0,0,1,0-.41,1.36,1.36,0,0,0,.15-.73,8.28,8.28,0,0,1,0-1.41c.08-.42.14-.84.2-1.26a7.19,7.19,0,0,1,.5-1.83A20.44,20.44,0,0,1,89.49,95a16.92,16.92,0,0,1,2.87-5,8.28,8.28,0,0,0,.76-1,2.93,2.93,0,0,1,.54-.66c.86-.88,1.72-1.76,2.59-2.63a1.51,1.51,0,0,0,.45-.82,12.92,12.92,0,0,0,.2-1.37c0-.35.14-.69.18-1a5.46,5.46,0,0,1,.06-1.08,6.66,6.66,0,0,0,.2-1.59,4.74,4.74,0,0,1,.15-.5s-.06-.11-.11-.15a.14.14,0,0,0-.11,0l-.18.1a20.07,20.07,0,0,1-2.3,2.12,13.84,13.84,0,0,1-3.67,2.71,2.18,2.18,0,0,0-.37.2,4.24,4.24,0,0,1-1.34.64.55.55,0,0,1-.51,0A9.74,9.74,0,0,1,87.47,84a.35.35,0,0,0-.54.12c-.35.53-.72,1.06-1,1.61a8.19,8.19,0,0,1-1,1.25A7.7,7.7,0,0,0,84,88a5.18,5.18,0,0,1-1.65,1.35A1.65,1.65,0,0,1,81,89.5a2.64,2.64,0,0,1-1.51-.76c-.19-.24-.52-.33-.67-.65-.23-.49-.25-.47-.58-.13a7.53,7.53,0,0,0-.86,1.23c-.28.45-.55.92-.85,1.36-.54.79-1,1.63-1.51,2.45a14.55,14.55,0,0,1-1.83,2.63,2.88,2.88,0,0,0-.28.33c-.41.58-.8,1.17-1.21,1.76-.06.08-.13.19-.22.22-.44.17-.49.71-.89.89a4.67,4.67,0,0,0-.67.34,1,1,0,0,1-.61.16l-1.41,0a.64.64,0,0,1-.57-.25,8,8,0,0,1-.7-.95c-.19-.33-.42-.68-.13-1.09a.49.49,0,0,0,0-.32,9,9,0,0,1,.2-1.47c0-.3.22-.53.25-.82s0-.58.15-.83a.24.24,0,0,0,.05-.1c-.07-.73.31-1.4.25-2.12a1.81,1.81,0,0,1,.17-.94c.13-.28,0-.65.16-.95,0,0,0-.14-.06-.15s-.17,0-.2,0c-.32.42-.65.85-1,1.29-.49.7-1,1.42-1.42,2.13a7.91,7.91,0,0,0-.52.81,1.83,1.83,0,0,1-.54.66s-.05,0-.07,0-.14.14-.13.12a8.67,8.67,0,0,1,.47-1c.79-1.19,1.61-2.35,2.39-3.55.31-.48.68-.91,1-1.36a2.54,2.54,0,0,0,.35-.65c.37-1,.54-2,.84-3.07,0-.1,0-.23,0-.31a19.06,19.06,0,0,0,.79-2.31,11.45,11.45,0,0,0,.44-1.86c.23-.81.38-1.65.65-2.45.14-.41.17-.84.33-1.23a3.3,3.3,0,0,0,.36-1.22c.31-.35.09-.87.39-1.21.56-1.91,1.25-3.77,1.86-5.65A31.21,31.21,0,0,1,75.5,64.2a41,41,0,0,1,2.63-4.75c.4-.56.71-1.16,1.14-1.69s1-1.06,1.46-1.58a1.37,1.37,0,0,1,.45-.28c.41-.21.84-.4,1.24-.63a1.39,1.39,0,0,1,.71-.2,1,1,0,0,0,.42,0,1.19,1.19,0,0,1,1.4.19,2.2,2.2,0,0,1,.9,1,7.78,7.78,0,0,1,.61,2.9,6.18,6.18,0,0,1-.2.93c-.07.31-.13.62-.23.92a2.25,2.25,0,0,0-.22.71.62.62,0,0,1-.15.39c-.24.21-.23.52-.36.76s-.41.43-.36.76c-.79,1.07-1.15,2.38-2,3.4-.08.11-.12.26-.19.38-.77,1.45-1.6,2.86-2.45,4.26s-1.9,2.92-2.85,4.39c-.33.51-.79.92-1.12,1.43s-.8,1.09-1.2,1.64A10.32,10.32,0,0,1,74,80.25a1.93,1.93,0,0,0-.77,1.48c-.27.77-.42,1.57-.61,2.35s-.52,1.54-.7,2.33c-.28.26-.12.63-.26.92a3.13,3.13,0,0,0-.34.78c-.06.31-.27.57-.25.93s-.26.58-.21.92c0,.11,0,.26,0,.32-.3.29-.13.69-.27,1a15.33,15.33,0,0,0-.66,2.12,13.6,13.6,0,0,1-.45,1.41c-.14.43-.22.9-.39,1.32s-.18.83-.31,1.24a1.79,1.79,0,0,0,.32,1.3.47.47,0,0,0,.58.15,6.45,6.45,0,0,0,1.79-1.54,21.56,21.56,0,0,1,1.75-2.17,1.5,1.5,0,0,0,.27-.34c.79-1.35,1.65-2.66,2.51-4,.2-.29.35-.62.53-.93.54-.92,1.18-1.77,1.79-2.66a.72.72,0,0,0,.16-.49c0-.25,0-.51,0-.76a4.07,4.07,0,0,1,.32-1.67c.24-.54.34-1.14.54-1.71.47-1.34.84-2.71,1.34-4a16.54,16.54,0,0,1,1.1-2.76c.7-1.21,1.36-2.43,2.13-3.59a2.47,2.47,0,0,1,2.41-1.1.58.58,0,0,1,.38.35,4.84,4.84,0,0,1,0,.85,2.8,2.8,0,0,1-.3.79,9,9,0,0,0-.86,1.7,1.46,1.46,0,0,0-.36.76c-.16.51-.4,1-.58,1.49A10.32,10.32,0,0,1,84,78.56a1.92,1.92,0,0,0-.28.8,3.88,3.88,0,0,1-.35,1.11,8.89,8.89,0,0,0-.26.92c-.18.61-.47,1.18-.69,1.78-.32.86-.71,1.69-1,2.59a3.31,3.31,0,0,0-.17.83c0,.26-.23.52,0,.79a1.55,1.55,0,0,0,.23,1.29c.11.23.24.28.51.26a1.47,1.47,0,0,0,.86-.4,24.1,24.1,0,0,0,1.71-1.79c.83-.95,1.38-2.1,2.23-3a.44.44,0,0,0,.09-.5c-.31-.44-.06-1-.37-1.44,0,0,0-.07,0-.11s0-.08,0-.1c.32-.48.15-1,.29-1.57a25.22,25.22,0,0,1,2-4.58,3.72,3.72,0,0,1,.43-.61c.23-.27.5-.52.74-.79a4.46,4.46,0,0,0,1-1.15,15.38,15.38,0,0,1,2.13-2c.44-.31.86-.65,1.27-1a1.78,1.78,0,0,1,1.26-.49c.36,0,.65-.27,1-.22a4.49,4.49,0,0,0,1,0,1.71,1.71,0,0,1,1.45.56c.1.11.21.21.31.3s.27,0,.28-.07a1.93,1.93,0,0,1,.58-1c.22-.26.54-.17.78-.31s.46.14.7.12c0,0,.14.08.15.14.08.45.36.9.2,1.36a4.57,4.57,0,0,0-.18,1.37,7.53,7.53,0,0,1-.16,1.7,6.85,6.85,0,0,0-.06,1.51,2.21,2.21,0,0,1-.16,1.16.33.33,0,0,0,0,.2c0,.29,0,.58,0,.87s-.17.47-.18.71a6,6,0,0,1-.2,1.7,1.39,1.39,0,0,0,0,.54c0,.06.06.17.09.17a.39.39,0,0,0,.29-.06c.12-.13.18-.3.29-.44.86-1.14,1.65-2.33,2.52-3.46a16.55,16.55,0,0,0,1.36-2.3,28.36,28.36,0,0,0,1.6-3.72,18.39,18.39,0,0,0,.54-1.83c.06-.24.13-.47.21-.71a3.89,3.89,0,0,0,.22-.81c0-.26.17-.48.2-.72.06-.54.33-1,.43-1.53a10,10,0,0,1,.45-1.53c.16-.47.32-.94.44-1.41s.24-1,.36-1.44c0-.07.07-.16,0-.21-.3-.48-.08-1.05-.3-1.56a2.71,2.71,0,0,1-.07-1.07,2.79,2.79,0,0,1,.11-1.28c.17-.35,0-.79.24-1.14a.64.64,0,0,0,.06-.31,1.87,1.87,0,0,1,.49-1.05.6.6,0,0,1,.55-.28c.27,0,.48-.13.72-.18a.57.57,0,0,1,.61.34,4.28,4.28,0,0,1,.12,2.43,2.24,2.24,0,0,0-.1.63c0,.54,0,1.08,0,1.62a3.48,3.48,0,0,0,.66,2.55,4.94,4.94,0,0,0,1.43,1.45,4.1,4.1,0,0,0,.7.24.67.67,0,0,1,.46.65,4.83,4.83,0,0,1-.32,1.77c-.21.64-.45,1.27-.71,1.89s-.4,1.21-.6,1.81a1.71,1.71,0,0,1-.46.94c-.23.6-.51,1.17-.68,1.79s-.52,1.46-.79,2.19c-.38,1.07-.86,2.1-1.24,3.17a9.45,9.45,0,0,1-.47,1c-.55,1.08-1.15,2.14-1.62,3.25a24.86,24.86,0,0,0-1.46,3.54,14.93,14.93,0,0,0-.5,2.05c-.09.9,0,1.81,0,2.71a.68.68,0,0,0,.06.32,5.66,5.66,0,0,1,.43,1.08.53.53,0,0,0,.62.31c.49-.27,1.13-.33,1.34-1a.7.7,0,0,1,.14-.16,13.23,13.23,0,0,0,2.34-4.17,7.53,7.53,0,0,1,.39-1,15.11,15.11,0,0,0,.76-1.86,7,7,0,0,1,.3-.68l1.16-2.29a8.35,8.35,0,0,0,.57-1.38,7,7,0,0,1,.62-1.46,5.41,5.41,0,0,0,.44-1.09,10.74,10.74,0,0,1,1-2.13,1.26,1.26,0,0,0,0-1.5,3.77,3.77,0,0,1-.28-.57c0-.07-.09-.12-.11-.19a.49.49,0,0,1,0-.21,19,19,0,0,1-.22-2.13,4.61,4.61,0,0,1,0-.75,15.45,15.45,0,0,1,.64-2l.42-.86a10.82,10.82,0,0,1,1.65-2.37,16.34,16.34,0,0,1,2.42-2.14,3.69,3.69,0,0,1,2.38-.83c.22,0,.43,0,.65,0a1.63,1.63,0,0,1,1.48.71c.07.09.09.22.16.27a.28.28,0,0,0,.28,0,3.3,3.3,0,0,0,.47-.7,3,3,0,0,1,.6-.76,1.12,1.12,0,0,1,.95-.41c.18,0,.36,0,.54,0a.57.57,0,0,1,.54.57,3.1,3.1,0,0,1-.16,1.16c-.17.42-.3.87-.48,1.29a3.29,3.29,0,0,0-.24.92c-.09.67-.39,1.3-.43,2a11.86,11.86,0,0,0-.72,2.33c-.34,1.15-.71,2.29-1.09,3.43a3.65,3.65,0,0,0-.09,1.39c0,.18.27.29.46.25a1.78,1.78,0,0,0,.92-.5,10.83,10.83,0,0,0,2.34-3.19c.25-.51.62-.95.85-1.48s.53-1.16.82-1.73.73-1.46,1-2.22.67-1.4,1-2.1c.66-1.27,1.51-2.41,2.28-3.61a14.89,14.89,0,0,1,.89-1.2,2.85,2.85,0,0,1,.47-.45.92.92,0,0,1,1.47.41c.1.22.16.46.25.69,0,0,.12,0,.16,0a.43.43,0,0,0,.14-.16,6.13,6.13,0,0,1,1.37-2.14,5.84,5.84,0,0,1,1.39-1.17,5.37,5.37,0,0,1,1.07-.45.9.9,0,0,1,.83,0,3.06,3.06,0,0,0,.57.29,5.86,5.86,0,0,1,2.37,1.81,3.33,3.33,0,0,1,.35.54c.34.6.37.59.9.1a9.89,9.89,0,0,1,1.5-1.39,1,1,0,0,0,.34-.64,2.49,2.49,0,0,1,.22-1,19.88,19.88,0,0,1,1-3.47c.17-.5.32-1,.5-1.5a12.76,12.76,0,0,0,.51-1.51c.12-.51.33-1,.49-1.51s.22-.82.36-1.22.29-.73.43-1.09a2.64,2.64,0,0,1,.1-.3c.15-.32.32-.64.46-1s.09-.7.29-1a5.14,5.14,0,0,0,.22-.59c.38-.81.67-1.64,1-2.46s.71-1.62,1-2.46c.19-.53.46-1,.7-1.56.53-1.16,1-2.35,1.61-3.48a27.75,27.75,0,0,1,1.92-3,2.18,2.18,0,0,0,.26-.34,2.88,2.88,0,0,1,1.18-1.06,4.68,4.68,0,0,1,1.75-.74c.5-.31,1-.13,1.58-.17a.28.28,0,0,1,.2.06,2.54,2.54,0,0,1,1.15,2c0,.36,0,.72,0,1.08a1.93,1.93,0,0,0,.1.63,1.35,1.35,0,0,1,0,.84,4.64,4.64,0,0,0-.18,1.27c0,.28-.15.55-.19.82s0,.59-.18.83a9.65,9.65,0,0,1-.57,2.37c-.2.75-.43,1.5-.59,2.26a5.85,5.85,0,0,1-.3.68,4.23,4.23,0,0,1-.58,1.47,13.49,13.49,0,0,0-.85,1.36c-.34.54-.69,1.08-1.06,1.6a17.77,17.77,0,0,1-1.3,1.7c-.55.62-1.06,1.27-1.59,1.9-.67.79-1.38,1.56-2.11,2.3-.49.89-1.42,1.42-1.94,2.3a1.23,1.23,0,0,1-.54.52c-.62.26-.85.86-1.18,1.34a3.39,3.39,0,0,0-.43,1.63c0,.37-.25.66-.25,1a1.35,1.35,0,0,1-.16.94.33.33,0,0,0,0,.2,3.6,3.6,0,0,1-.18,1.16c-.14.35,0,.78-.23,1.15-.05.08,0,.21,0,.32a3.4,3.4,0,0,1-.19,1.16c-.14.3,0,.7-.21,1a1.14,1.14,0,0,0,0,.53s.07.1.11.14.07,0,.09-.06a1.63,1.63,0,0,0,.23-.35c.17-.43.51-.76.67-1.2a4.06,4.06,0,0,1,.66-1.21c.7-.82,1.2-1.78,1.87-2.62,1-1.23,2-2.43,2.91-3.71a.72.72,0,0,1,.31-.29,2.48,2.48,0,0,0,.75-.61,3.82,3.82,0,0,1,1.2-.7,1.06,1.06,0,0,1,1.31.46,1.67,1.67,0,0,1,.29.91,3.88,3.88,0,0,0,.08,1.28,4.31,4.31,0,0,1,.12,1.06c0,.27-.24.53,0,.8a2.3,2.3,0,0,0-.2.82,1.07,1.07,0,0,1-.16.83,10.14,10.14,0,0,1-.48,2.5,16.37,16.37,0,0,0-.45,2,9.36,9.36,0,0,0-.65,1.91,3.38,3.38,0,0,0-.21,1,1.55,1.55,0,0,1-.15.84c-.07.09,0,.27,0,.41s.15.34.14.51a1.08,1.08,0,0,0,.46.81.44.44,0,0,0,.59,0,3.91,3.91,0,0,0,.53-.67c.39-.68.61-1.44,1-2.13.07-.9.7-1.64.75-2.55a1.2,1.2,0,0,1,.21-.48,2.6,2.6,0,0,0,.43-1.2.29.29,0,0,1,.07-.2c.37-.37.39-.91.64-1.33a1.9,1.9,0,0,0,.14-.4,2,2,0,0,1,.13-.51c.22-.37.24-.83.52-1.17a1,1,0,0,0,.22-.47,7.69,7.69,0,0,1,.84-2.83c.21-.45.32-.94.55-1.38a3.62,3.62,0,0,0,.58-1.37,10.1,10.1,0,0,1,1.27-2c.47-.53.89-1.11,1.33-1.67a.71.71,0,0,1,.2-.25c.78-.51,1.34-1.31,2.17-1.75a4.07,4.07,0,0,1,1.21-.38,1,1,0,0,1,.87.12,1.36,1.36,0,0,1,.51.91,4,4,0,0,1-.28,1.78c-.31.91-.7,1.79-.93,2.72-.38,1.55-1,3-1.43,4.55a14,14,0,0,1-.78,2.43,2.67,2.67,0,0,1,0,.89c0,.65,0,1.3,0,1.95a.93.93,0,0,0,.52.87.33.33,0,0,0,.29,0,1.27,1.27,0,0,0,.47-.26,6.16,6.16,0,0,1,1.34-.87A17.75,17.75,0,0,0,177,57.69a3.93,3.93,0,0,0,.85-1,7.13,7.13,0,0,1,1-1.28,1.69,1.69,0,0,0,.49-.93c.09-.34.24-.66.35-1a2.26,2.26,0,0,0,.32-1c.31-.64.61-1.29.94-1.92a1.37,1.37,0,0,1,.38-.38.78.78,0,0,1,1.05-.12,4.23,4.23,0,0,0,.76.4,1.29,1.29,0,0,1,.76,1.19c0,.29,0,.58,0,.87a2,2,0,0,1-.27,1.13c-.49.88-.75,1.85-1.17,2.75a12.45,12.45,0,0,1-.79,2.42c-.25.77-.51,1.54-.81,2.3a36.79,36.79,0,0,1-1.68,3.69,6.73,6.73,0,0,0-.58,1.25c-.61,1.25-1.2,2.51-1.77,3.77a15.57,15.57,0,0,0-.51,1.5s.06.17.1.17a4.48,4.48,0,0,0,.64,0c1.7,0,3.4,0,5.09,0a3.94,3.94,0,0,1,1.92.2h.1a13.58,13.58,0,0,1,3.93.88,1.51,1.51,0,0,1,.3.1,15.6,15.6,0,0,1,2.91,1.55,11.31,11.31,0,0,1,2.14,1.41,7.39,7.39,0,0,1,2.46,3.42,4.37,4.37,0,0,0,.12.52,5.74,5.74,0,0,1,.19.82,3.65,3.65,0,0,1,0,1.19,5.51,5.51,0,0,1-.92,2.46,1.17,1.17,0,0,0-.15.27,2.35,2.35,0,0,1-.19.39,14.86,14.86,0,0,1-1.74,2c-.11.1-.29.16-.33.27-.15.41-.52.56-.84.78a18.24,18.24,0,0,1-2.26,1.42,3.55,3.55,0,0,0-.88.38,3.14,3.14,0,0,1-1,.4,4.12,4.12,0,0,0-.9.28c-.35.23-.81,0-1.12.35-.75,0-1.41.46-2.16.51-.29.21-.64.1-.94.19a2,2,0,0,1-.94.18c-.38-.05-.67.24-1,.23a1.93,1.93,0,0,0-.94.14,1.49,1.49,0,0,1-.64.06,7.65,7.65,0,0,0-1.73.06,12,12,0,0,1-2.67.16c-.87,0-1.73,0-2.6,0a.81.81,0,0,1-.22,0,.88.88,0,0,0-.79,0,.38.38,0,0,1-.21,0,15.41,15.41,0,0,0-3.32-.22,1.72,1.72,0,0,1-.52-.09,2,2,0,0,0-1.07-.07c-.26,0-.66.1-.68.54a.31.31,0,0,1,0,.2c-.62.56-.83,1.42-1.47,2a4.62,4.62,0,0,0-.5.7c-.15.18-.21.43-.48.54s-.24.26-.31.41a4.39,4.39,0,0,1-.84,1.11c-.57.56-1.13,1.13-1.68,1.7a5.17,5.17,0,0,0-1.07,1.21c-.18.35-.6.46-.83.8a2.26,2.26,0,0,1-.84.65,3,3,0,0,0-.75.6,8.09,8.09,0,0,1-1.41,1.14,7.29,7.29,0,0,0-.93.73,1.8,1.8,0,0,1-.35.24,15.23,15.23,0,0,0-1.61,1c-1,.63-2,1.22-3,1.8A17.3,17.3,0,0,1,145,109c-.75.2-1.49.43-2.23.69-.33.12-.71,0-1,.19s-.66,0-.92.25c-.21-.24-.39,0-.58,0a2.21,2.21,0,0,0-.63.13c-.21.09-.38-.23-.59,0a.9.9,0,0,1-.62.13h-.65a1.81,1.81,0,0,0-1,.16c-.19.13-.35-.2-.58,0s-.35,0-.52.09-.3-.18-.5-.11a1,1,0,0,1-.41.09c-.35,0-.72.11-1-.13-.07-.06-.21,0-.31,0a12.39,12.39,0,0,1-1.92-.21,13.23,13.23,0,0,1-1.74-.49c-.67-.2-1.36-.36-2-.61a11.92,11.92,0,0,1-2.9-1.56c-.49-.35-1-.71-1.46-1.09a3.39,3.39,0,0,1-.65-.71c-.17-.24-.46-.38-.65-.67a10.85,10.85,0,0,1-1.53-2.91.91.91,0,0,1-.11-.3,9.33,9.33,0,0,1-.25-1.9c0-.27-.22-.5,0-.81s0-.49,0-.75a4.91,4.91,0,0,1,0-.86,8.39,8.39,0,0,1,.45-1.74A16.07,16.07,0,0,1,122.85,92a2.88,2.88,0,0,1,1-.93c.33-.15.4-.57.75-.74a2.93,2.93,0,0,0,.72-.65.54.54,0,0,0,.16-.27c0-.33.18-.64.18-.93,0-.52.3-1,.28-1.47.26-.4.14-.91.39-1.32.06-.09,0-.22.07-.31.47-.84.63-1.81,1.1-2.66.38-.68.68-1.41,1.06-2.09a12.23,12.23,0,0,1,.95-1.43,31.4,31.4,0,0,1,2.37-3,2.88,2.88,0,0,1,.34-.23.71.71,0,0,1-.18.49c-.81,1-1.48,2-2.24,3a18.3,18.3,0,0,0-1.46,2.48c-.13.25-.23.52-.36.77a23,23,0,0,0-1.51,3.85c-.13.35,0,.72-.18,1a3,3,0,0,0-.17.72c0,.28-.13.55-.19.82a.28.28,0,0,0,.05.2s.12,0,.16,0a13.92,13.92,0,0,1,2.56-1l1.32-.39a5.73,5.73,0,0,1,1.36-.2,1.46,1.46,0,0,0,.41-.11c.23-.09.41-.18.46-.5s.17-.6.2-.93a4.62,4.62,0,0,1,.18-.71c.05-.28,0-.58.16-.83,0-.54.27-1,.28-1.57a5.23,5.23,0,0,1,.22-1.57,4.42,4.42,0,0,0,.2-.93,4.84,4.84,0,0,1,.22-.93c.17-.68.3-1.38.43-2.07.1-.52.21-1,.35-1.54.25-.89.34-1.81.52-2.71a.4.4,0,0,0,0-.11s0-.09,0-.09-.13,0-.16,0a3,3,0,0,0-.53.54,6.49,6.49,0,0,1-.88,1.08,6,6,0,0,1-.37.51C132.8,75.41,132.63,75.79,132.22,75.92Zm26,7.79h0s0-.09,0-.11a1.35,1.35,0,0,1,1.14-.06,2.68,2.68,0,0,1,1.12.61,5.41,5.41,0,0,1,.75,1.15,3.18,3.18,0,0,1,.23,1.14,9.08,9.08,0,0,1-.19,2.13,12.76,12.76,0,0,1-.65,1.79s.06.24.12.25c.25,0,.5,0,.75,0s.42.09.63.1a5.25,5.25,0,0,1,.68.08c.24.06.31,0,.39-.24a2.19,2.19,0,0,1,.26-.69,8.35,8.35,0,0,0,.8-1.39c.06-.09.08-.21.15-.28a3.59,3.59,0,0,0,.65-1.1c.28-.53.53-1.09.8-1.63.13-.24.45-.39.39-.74.37-.72.68-1.48,1-2.21s.52-1.46.88-2.15a2,2,0,0,1,.32-1,8.53,8.53,0,0,0,.36-.88c.26-.85.56-1.68.89-2.5s.65-1.42,1-2.14a7.58,7.58,0,0,0,.28-.8c0-.1-.1-.23-.2-.18a2.87,2.87,0,0,1-1.16.2c-.14,0-.31,0-.42,0a6.62,6.62,0,0,1-1.95.52c-.69.16-1.37.36-2,.56s-1.5.41-2.23.69-1.41.67-2.15.9a3.51,3.51,0,0,0-1,.38,3.51,3.51,0,0,1-.95.47c-.24.37-.7.3-1,.54a5.78,5.78,0,0,1-1.11.63,20.52,20.52,0,0,0-2.06,1.12,14.51,14.51,0,0,0-1.34.86c-.58.47-1.13,1-1.7,1.48a13.25,13.25,0,0,0-2.2,2.63c-.21.29-.34.63-.54.92a14.49,14.49,0,0,0-1.55,3.37c-.06.15.05.27.17.36a.55.55,0,0,0,.4.14,6,6,0,0,1,2,.35c.68.21,1.38.29,2.06.5a6.09,6.09,0,0,0,1.47.23A8.83,8.83,0,0,1,155,90c.25,0,.55,0,.75,0a1.89,1.89,0,0,0,1.16.16c.45,0,.82.24,1.26.23s1.15,0,1.73,0a.28.28,0,0,0,.32-.22c.07-.2.15-.39.23-.59A19.17,19.17,0,0,0,161,87.7a3.6,3.6,0,0,0-.12-2.3,2.41,2.41,0,0,0-2.48-1.69A.4.4,0,0,1,158.25,83.71Zm2.84-31.79h0L161,50.85c-.37.07-.53.42-.8.62a4.82,4.82,0,0,0-.51.38,5,5,0,0,0-.92.92,11,11,0,0,1-.82,1c-.13.17-.25.34-.37.52-.71,1.11-1.62,2.08-2.31,3.21a.83.83,0,0,1-.22.24c-.54.45-.71,1.15-1.13,1.68-.05.53-.5.85-.69,1.31a10.15,10.15,0,0,1-.81,1.38,6.49,6.49,0,0,0-.74,1.52,21.86,21.86,0,0,1-1,2.59c-.34.76-.76,1.17-1.54,1-.15,0-.29,0-.44,0a.5.5,0,0,1-.42-.63,1.89,1.89,0,0,0,.18-.93c-.05-.35.23-.61.2-.94s.23-.76.22-1.14c0-.62.3-1.18.26-1.8.32-.39.13-.9.3-1.35A4.8,4.8,0,0,0,149.6,59c0-.11,0-.24,0-.32.27-.4.14-.84.18-1.26a3.9,3.9,0,0,1,.14-1,3.4,3.4,0,0,0,0-1.06.13.13,0,0,0,0-.09s-.07,0-.1,0c-.36.15-.38.59-.7.78a2.32,2.32,0,0,0-.86,1.07,1.08,1.08,0,0,0-.09,1.12.79.79,0,0,1,.08.41,2.56,2.56,0,0,0-.08.81,8.53,8.53,0,0,1,.1.85c.07.41-.21.76-.19,1.15a2.4,2.4,0,0,1-.36,1.33c-.18.31-.33.63-.48.95-.07.16-.05.41-.17.5-.42.33-.51.84-.75,1.28a4.39,4.39,0,0,1-.37.51c-.17.23-.33.47-.52.68s-.4.41-.61.6-.3.19-.42.32a3.6,3.6,0,0,1-1.65.94,1.28,1.28,0,0,1-1.28-.1,3.42,3.42,0,0,0-.79-.31.72.72,0,0,1-.34-.24c-.45-.72-1.06-1.4-.55-2.35a.17.17,0,0,0,0-.1,2.61,2.61,0,0,1,.4-1.32,8.46,8.46,0,0,1,2.32-3.14,9.32,9.32,0,0,1,1.69-1.31A7.76,7.76,0,0,0,146,58.39a.44.44,0,0,0,.12-.49,3.07,3.07,0,0,1-.19-1.27,1.06,1.06,0,0,0-.14-.51c-.17-.31-.33-.63-.47-.95A3.17,3.17,0,0,0,144,53.69a.78.78,0,0,0-.82,0,6.81,6.81,0,0,0-1.5,1c-.48.44-.79,1-1.24,1.49a.64.64,0,0,0-.13.29,12.75,12.75,0,0,1-.69,1.56,1.76,1.76,0,0,0-.2.71,3.38,3.38,0,0,1-.08,1.06,3.9,3.9,0,0,0-.14.95,7.62,7.62,0,0,0-.18.93c0,.83,0,1.66,0,2.5S139,66,139,67a4.22,4.22,0,0,1-.09,1.07c-.15.63-.16,1.27-.34,1.89.11.38-.25.66-.22,1,.07.76-.31,1.47-.23,2.24a.58.58,0,0,1-.09.3c-.2.41-.05.86-.15,1.28s-.26.88-.39,1.32a.4.4,0,0,0,0,.11,6.71,6.71,0,0,1-.34,1.66,8,8,0,0,0-.31,1.35,5.41,5.41,0,0,1-.28,1.34,12.39,12.39,0,0,0-.37,1.77,9,9,0,0,1-.23,1c-.17.58-.26,1.18-.48,1.74a14.89,14.89,0,0,1-.57,1.83c-.06.12.07.25.25.25l3,0c.22,0,.47-.07.64,0a2.94,2.94,0,0,0,1.27.17c.25,0,.51,0,.73.16.35-.16.67.13,1,.06s.68.22,1,.2c.73,0,1.41.29,2.13.25a.38.38,0,0,1,.21.05,2.73,2.73,0,0,0,1.27.15.26.26,0,0,0,.31-.22c.05-.39.2-.76.28-1.14a2.45,2.45,0,0,1,.59-1.22c.1-.78.74-1.29,1-2a26,26,0,0,1,1.76-2,10.5,10.5,0,0,0,1-1,12.54,12.54,0,0,1,3.25-2.41c1.11-.64,2.25-1.23,3.4-1.82.47-.24,1-.41,1.45-.64A21.39,21.39,0,0,1,162,74.66a6.72,6.72,0,0,0,1.17-.49c.39-.23.85-.14,1.21-.39a3.13,3.13,0,0,1,1.22-.36,12.76,12.76,0,0,1,2.27-.56c.42-.23.92-.11,1.34-.29s.65,0,.94-.17a2.36,2.36,0,0,1,.94-.19.36.36,0,0,0,.39-.28c.1-.27.33-.5.38-.77a9,9,0,0,1,.67-1.57c.2-.56.41-1.13.66-1.68.39-.88.79-1.75,1.15-2.64.59-1.41,1.34-2.75,1.93-4.16a14.76,14.76,0,0,1,1.45-2.75,4.42,4.42,0,0,0,.44-1c0-.08,0-.19-.07-.29l-.12.12a4.59,4.59,0,0,1-.73.79,22.85,22.85,0,0,0-2.17,1.76,2.73,2.73,0,0,1-2.08.95c-.1,0-.19.09-.3.12a.57.57,0,0,1-.29,0,7.87,7.87,0,0,1-2.19-1.09.58.58,0,0,1-.26-.32,6,6,0,0,0-.53-1.28,4.45,4.45,0,0,1-.36-1.54c0-.43.31-.8.24-1.25,0-.12.13-.26.14-.39a11.18,11.18,0,0,1,.48-1.3,14.56,14.56,0,0,1,1.27-3.49c.21-.41.42-.82.61-1.25a10.92,10.92,0,0,1,1.43-2.24,13.6,13.6,0,0,0,1.23-2.24.18.18,0,0,0-.17-.22,1.85,1.85,0,0,0-.41.07c-.55.21-.88.73-1.41,1a19.34,19.34,0,0,0-2.79,3.13,22.84,22.84,0,0,0-1.13,2.06,15.91,15.91,0,0,0-1,2.23,6,6,0,0,1-.23.59,5.89,5.89,0,0,0-.41,1.64,2.25,2.25,0,0,1-.25.81,7.63,7.63,0,0,0-.41.87c-.34,1-.72,2.06-1.08,3.1-.47,1.33-1,2.65-1.4,4-.1.34-.24.66-.35,1a7.79,7.79,0,0,1-1.09,2,1.12,1.12,0,0,1-.55.49,6.93,6.93,0,0,1-1.29,0c-.53-.34-1.18-.46-1.71-.85a2,2,0,0,1-.77-1,2.43,2.43,0,0,1-.08-1.87.72.72,0,0,0,.05-.32,4.56,4.56,0,0,1,.28-1.46c0-.13.15-.27.14-.39-.07-.49.22-.9.27-1.36a12.57,12.57,0,0,1,.4-1.42c.21-.9.49-1.78.74-2.66a11.7,11.7,0,0,1,1-2.47,1.65,1.65,0,0,0,.24-.92C161.08,52.28,161.09,52.1,161.09,51.92ZM125.3,91.4l-.1-.5c-.33-.11-.43.2-.6.35s-.5.52-.77.76a6.27,6.27,0,0,0-1.17,1.4A4.77,4.77,0,0,0,121.8,95a3.14,3.14,0,0,0-.68,1.65,1.23,1.23,0,0,0-.17.93c0,.37-.27.65-.23,1a7,7,0,0,1,0,1.52,5.21,5.21,0,0,0,.25,1.47,4.63,4.63,0,0,0,.38,1.1,14.1,14.1,0,0,0,1.25,2.11,3.83,3.83,0,0,0,1.17,1.23c.22.13.23.43.53.49a1.82,1.82,0,0,1,.61.41c.2.16.38.34.58.49a9.78,9.78,0,0,0,2.75,1.4c.44,0,.81.25,1.24.28.31.32.76.13,1.12.33a9.38,9.38,0,0,0,1.24.25,3.91,3.91,0,0,0,1.19,0l3.14,0c.18,0,.4,0,.52-.06s.43.15.6,0c.36-.25.76-.15,1.15-.19a1.85,1.85,0,0,0,.63-.06,1.26,1.26,0,0,1,.73-.14c.54,0,1-.33,1.57-.25.09,0,.18-.11.28-.14l2.17-.48a8.83,8.83,0,0,1,1.74-.49c.06,0,.12-.07.17-.12a2.16,2.16,0,0,1,.57-.28,27.17,27.17,0,0,0,2.86-1.42c.94-.56,1.81-1.24,2.71-1.88.26-.44.74-.65,1.09-1a15.24,15.24,0,0,1,1.23-1,1.4,1.4,0,0,1,.34-.26,1.51,1.51,0,0,0,.87-.72.44.44,0,0,1,.16-.14,2.16,2.16,0,0,0,.57-.28,5.26,5.26,0,0,0,.45-.58c.34-.41.71-.8,1-1.23.18-.23.47-.3.63-.55s.43-.41.54-.66.49-.49.68-.79c.07-.13.25-.2.34-.37a10.37,10.37,0,0,1,.62-1,3.69,3.69,0,0,1,.6-.88c.34-.28.17-.78.53-1l1.11-1.95c.12-.21.11-.2-.11-.28a5.92,5.92,0,0,0-2-.22.33.33,0,0,0-.34.2,16.1,16.1,0,0,1-1.87,2.61,9.59,9.59,0,0,1-2.28,2.12,6.08,6.08,0,0,1-.64.39c-.61.27-1.24.52-1.86.77a2.08,2.08,0,0,1-1,.22,1.49,1.49,0,0,0-.62.12,2,2,0,0,1-.73,0c-.14,0-.27-.11-.41-.11a3.22,3.22,0,0,1-1.86-.69A5,5,0,0,1,147,94.52a4.78,4.78,0,0,1-.48-2.17.54.54,0,0,0-.05-.31,2.14,2.14,0,0,1-.13-1.17,2.28,2.28,0,0,1,.16-1.26.69.69,0,0,0,0-.53c-.07-.2-.3-.14-.47-.18a4.56,4.56,0,0,0-.6-.18,8.16,8.16,0,0,1-1.7-.22,10.42,10.42,0,0,1-1-.19,4.6,4.6,0,0,0-1.18-.07.75.75,0,0,1-.31,0,2.58,2.58,0,0,0-1.06-.16,7.51,7.51,0,0,0-1-.17c-1.37,0-2.74,0-4.12,0a.34.34,0,0,0-.39.27c-.12.41-.31.8-.39,1.21a4.89,4.89,0,0,1-.66,1.56c-.27.45-.42,1-.73,1.42a13.55,13.55,0,0,0-.94,1.43,10.44,10.44,0,0,1-2,2.23,3.15,3.15,0,0,1-1.69.58,3.69,3.69,0,0,1-2.5-1.27.76.76,0,0,1-.15-.28c-.22-.61-.25-1.25-.41-1.87a1,1,0,0,1,0-.63A3.43,3.43,0,0,0,125.3,91.4Zm50.8-.08a22.11,22.11,0,0,0,3.56-.2c.54-.13,1.13-.05,1.7-.21.4-.12.84,0,1.26-.18s.92-.09,1.35-.28a2.61,2.61,0,0,1,.82-.21c.36,0,.7-.16,1-.2a6.65,6.65,0,0,0,1-.28A12,12,0,0,0,190.7,88a11.43,11.43,0,0,0,3.14-3.06c.22-.33.45-.64.69-1a6,6,0,0,0,.47-1.06,9.81,9.81,0,0,0,.53-1.83,3.72,3.72,0,0,0-.25-2,8.25,8.25,0,0,0-.81-1.63,4.85,4.85,0,0,0-.68-1,8.13,8.13,0,0,0-1.15-1,17.62,17.62,0,0,0-4.94-2.45c-.27-.33-.7-.12-1-.3s-.77-.11-1.11-.32c-.62,0-1.18-.32-1.8-.25-.25,0-.51,0-.76,0s-.44-.16-.7-.1a3,3,0,0,1-.71-.08c-.29,0-.58,0-.87,0h-1.4c-.18,0-.4,0-.54,0a2.31,2.31,0,0,1-1.16.15c-.35,0-.73,0-1.08,0a1.16,1.16,0,0,0-1,.7c-.35.82-.8,1.59-1.19,2.4-1.43,3-3,5.89-4.54,8.84-.52,1-1,2.06-1.59,3-.3.48-.58,1-.86,1.48-.39.71-.69,1.48-1,2.22-.08.17.07.17.15.17s.46,0,.64,0a3.76,3.76,0,0,0,1.59.18H170c.47,0,.94,0,1.41,0s.87-.15,1.26.16a.21.21,0,0,0,.2,0,1.1,1.1,0,0,1,.73-.13Zm-9.39-62.59h0c0-.43,0-.87,0-1.3a3.56,3.56,0,0,0-.42-1.63,1.14,1.14,0,0,0-.59-.61c-.21-.1-.41,0-.61.12a1.85,1.85,0,0,1-.42.06.6.6,0,0,0-.3.11,8.77,8.77,0,0,0-1.12,1.16c-.36.53-.56,1.15-.91,1.68a.74.74,0,0,0-.16.39,2.21,2.21,0,0,1-.34,1,10.81,10.81,0,0,0-.48,1.18,6.09,6.09,0,0,1-.42,1.2,7.14,7.14,0,0,0-.4,1.32,15.44,15.44,0,0,1-.81,2.08c0,.09-.14.19-.14.29a2.94,2.94,0,0,1-.46,1.29,8,8,0,0,0-.46,1.41,2.46,2.46,0,0,1-.46,1.18.72.72,0,0,0-.16.38,8.21,8.21,0,0,1-.58,1.82c-.27.69-.52,1.39-.74,2.1-.28.91-.51,1.84-.85,2.73a6.24,6.24,0,0,0-.41,1.09,3.63,3.63,0,0,1-.25.81c-.2.46-.4.91-.58,1.37a.77.77,0,0,0,0,.3c.1,0,.23,0,.29,0,.42-.4.83-.8,1.23-1.22.21-.23.37-.52.58-.76a7.43,7.43,0,0,0,.67-.71,6,6,0,0,1,.62-.7c.18-.21.47-.35.61-.58.24-.41.63-.69.89-1.07a6.15,6.15,0,0,1,.9-1.06,4.28,4.28,0,0,0,.84-1.11c.09-.15.16-.36.29-.43a2.16,2.16,0,0,0,.67-.64,11.45,11.45,0,0,0,1-1.52,17.32,17.32,0,0,0,1.59-2.89,3.32,3.32,0,0,0,.34-1.23,1.46,1.46,0,0,1,.16-.61,2.08,2.08,0,0,0,.26-.81,4.46,4.46,0,0,1,.27-1,5.44,5.44,0,0,1,.26-1c.19-.33.13-.69.26-1a5.75,5.75,0,0,0,.3-1.55C166.75,29.75,166.71,29.24,166.71,28.73ZM88,102.58c0,.51,0,.88,0,1.23s.17.69.18,1a2.3,2.3,0,0,0,.38,1.09,2.44,2.44,0,0,0,2.24,1.2.81.81,0,0,0,.57-.25,14.28,14.28,0,0,0,1.21-1.37,5.17,5.17,0,0,0,.84-1.59c.17-.54.35-1.08.56-1.61s.29-1.16.51-1.72a3.81,3.81,0,0,0,.24-1.26,3.71,3.71,0,0,0,0-1,1,1,0,0,0,.15-.83c0-.35.21-.61.21-.93a6.27,6.27,0,0,1,0-.87c0-.31.16-.62.19-.93A8.48,8.48,0,0,0,95.6,93c.36-.53.08-1.21.4-1.76,0-.46,0-.93,0-1.4a12.56,12.56,0,0,0,.2-1.37,2.63,2.63,0,0,1,.13-1,4.92,4.92,0,0,0,.06-1.28.13.13,0,0,0-.07-.08.09.09,0,0,0-.09,0l-2.52,2.53-.06.08c-.69,1-1.39,1.9-2,2.88a13.59,13.59,0,0,0-1.42,2.49c-.22.56-.48,1.11-.7,1.67A5.37,5.37,0,0,0,89,97.12a6.91,6.91,0,0,1-.52,1.39.79.79,0,0,0-.08.3,2.14,2.14,0,0,1-.22,1.14C88.3,100.89,87.86,101.79,88,102.58ZM86.05,58.77a2.57,2.57,0,0,1,0-.28,3.88,3.88,0,0,0-.43-1.63c-.16-.44-.55-.66-.85-1a.68.68,0,0,0-.38-.16,5.06,5.06,0,0,0-.87,0,.53.53,0,0,0-.29.12,4.9,4.9,0,0,0-1.31,1.55,6.79,6.79,0,0,1-.65,1.22,4.48,4.48,0,0,0-.54,1,20.78,20.78,0,0,1-.94,2,9.83,9.83,0,0,1-.68,1.43A11.59,11.59,0,0,1,78,65.67a3.42,3.42,0,0,0-.43,1.19c0,.42-.29.73-.3,1.13,0,.14-.14.26-.15.4a4.74,4.74,0,0,1-.47,1.51,1.77,1.77,0,0,0-.21.71,1,1,0,0,1,0,.42,21.94,21.94,0,0,0-.91,2.5A3.52,3.52,0,0,0,75.2,75a.81.81,0,0,1-.13.51,4.17,4.17,0,0,0-.46,1.41c-.13.41-.22.81-.39,1.21a8.34,8.34,0,0,0-.33,1.33.81.81,0,0,0,0,.22.18.18,0,0,0,.07.08.08.08,0,0,0,.08,0,4.51,4.51,0,0,0,.54-.53c.43-.56.83-1.15,1.25-1.73a4.25,4.25,0,0,1,.31-.43c.68-.69,1.06-1.61,1.78-2.27a.24.24,0,0,0,.06-.09A9.51,9.51,0,0,1,79,73a18.93,18.93,0,0,0,1.08-1.71,38.76,38.76,0,0,0,2-3.43,2.68,2.68,0,0,1,.26-.47,22.17,22.17,0,0,0,1.44-2.5,3.43,3.43,0,0,1,.31-.56,14,14,0,0,0,1.49-3.06A6.65,6.65,0,0,0,86.05,58.77ZM151.81,97.2a7.48,7.48,0,0,0,1.17-.13A13.58,13.58,0,0,0,155.64,96c.58-.31,1-.84,1.51-1.17a6.15,6.15,0,0,1,1.07-1.21,9.91,9.91,0,0,0,1.34-2.05.32.32,0,0,0-.26-.47,6.9,6.9,0,0,1-1.8-.2,2.21,2.21,0,0,0-1,0c-.38,0-.69-.18-1-.2a4.33,4.33,0,0,1-1.68-.23c-.41.08-.76-.18-1.15-.2s-.84-.16-1.25-.22a9.78,9.78,0,0,0-1.35-.28c-.44,0-.87-.32-1.32-.35s-.74-.25-1.14-.26-.39.1-.41.35A7.2,7.2,0,0,1,147,91.6c0,.09,0,.21.05.31a1.85,1.85,0,0,1,.12.4,6.75,6.75,0,0,0,1,3,3.7,3.7,0,0,0,1.46,1.37A4.05,4.05,0,0,0,151.81,97.2ZM99,71.64c0-.29,0-.57,0-.86a.57.57,0,0,0-.1-.3,1.66,1.66,0,0,0-1-.63,1,1,0,0,0-1.07.32c-.09.12-.14.27-.25.35-.44.34-.66.9-1.22,1.15a1.83,1.83,0,0,0-.72.78,6.84,6.84,0,0,1-.89,1.19,11.77,11.77,0,0,0-1.68,2.46,5.13,5.13,0,0,1-.36.65c-.2.29-.5.48-.57.89s-.38.6-.51.92a3.63,3.63,0,0,1-.48.94,2.38,2.38,0,0,0-.42.86,5.29,5.29,0,0,1-.5,1.17,1.49,1.49,0,0,0-.22.82,6.32,6.32,0,0,1,0,.87c0,.38.19.59.46.8a.53.53,0,0,0,.6,0c.32-.22.64-.45,1-.69.58-.42,1.14-.86,1.72-1.27.29-.2.64-.33.92-.53.44-.32.82-.7,1.26-1a25.7,25.7,0,0,0,2.48-2,1,1,0,0,0,.32-.65,9.27,9.27,0,0,1,.3-1.67c.08-.25.06-.5.15-.73a4,4,0,0,0,.22-.82,8.85,8.85,0,0,1,.41-1.42A3.54,3.54,0,0,0,99,71.64Zm20.42-.73h0a4.56,4.56,0,0,1,0,.64,5.64,5.64,0,0,0,.27,1.69,4.75,4.75,0,0,0,.39.87,1.37,1.37,0,0,0,.81.79.69.69,0,0,0,.8,0c.16-.14.38-.21.53-.36s.26-.43.44-.59A9.8,9.8,0,0,0,124,72a.94.94,0,0,0,.14-1,1.18,1.18,0,0,1,0-.94,1.17,1.17,0,0,0,.09-.52,12.24,12.24,0,0,1,.26-2.34c.09-.8.39-1.58.44-2.4,0,0,0-.06,0-.09a22.63,22.63,0,0,1,.93-2.49.69.69,0,0,0-.19-1,2.22,2.22,0,0,0-.33-.28,1.26,1.26,0,0,0-1.78.36c-.12.18-.25.35-.38.52-.65.85-1.27,1.7-1.84,2.61a9.64,9.64,0,0,0-1.06,2.31,5.86,5.86,0,0,0-.44,1.64c-.3.35-.22.81-.36,1.22A4.25,4.25,0,0,0,119.46,70.91Zm11.46,17.45a11.16,11.16,0,0,0-2,.54A15,15,0,0,0,126.35,90a1,1,0,0,0-.62,1,3.77,3.77,0,0,1-.19,1.79.37.37,0,0,0,0,.31,2,2,0,0,1,.17.84,3.92,3.92,0,0,0,.23.81c.11.25.4.27.6.41a3.36,3.36,0,0,1,.43.31.92.92,0,0,0,.75.36,1.23,1.23,0,0,0,1.63-.33,5.05,5.05,0,0,0,1.34-2.14,2.32,2.32,0,0,1,.22-.59,14,14,0,0,0,.64-1.57,11.8,11.8,0,0,0,.4-1.76,4.62,4.62,0,0,0,0-1.18c0-.1,0-.21-.17-.17Zm9.56-22.47a4.91,4.91,0,0,1,0,.55,1,1,0,0,0,.36.86,2.15,2.15,0,0,0,.71.47,1.15,1.15,0,0,0,1-.07,2.37,2.37,0,0,0,.81-.69A10.45,10.45,0,0,0,145,63.82a7.68,7.68,0,0,0,.49-1.94c.21-.29.11-.63.17-.94s.16-.62.19-.94c0-.16,0-.41-.1-.49s-.39.07-.53.21a3.34,3.34,0,0,1-.7.48c-.21.13-.41.27-.61.42s-.55.56-.89.79a4.89,4.89,0,0,0-.78.85,8.16,8.16,0,0,0-.8.87,5.24,5.24,0,0,0-.36.88,2.78,2.78,0,0,1-.29.57A2.05,2.05,0,0,0,140.48,65.89Z"></path><path d="M70,54a1.36,1.36,0,0,1,.09-.41.54.54,0,0,0,.09-.51,1.06,1.06,0,0,1,0-1c.14-.4,0-.87.24-1.25-.08-.61.35-1.08.5-1.62a5.35,5.35,0,0,1,.63-1.11c.4-.68.77-1.37,1.22-2a.56.56,0,0,1,.5-.31,1.55,1.55,0,0,1,.43,0c.08,0,.19.12.19.2a1.11,1.11,0,0,1,0,.63c-.27.43-.1.92-.3,1.36a11.07,11.07,0,0,0-.45,1.3c-.08.23-.16.47-.25.7a2,2,0,0,0-.27,1.12.9.9,0,0,1-.16.61,2.16,2.16,0,0,0-.3,1.24.82.82,0,0,1-.09.41.7.7,0,0,0,0,.71.39.39,0,0,1,.06.21c0,.92.64,1.19,1.32,1.44a.66.66,0,0,0,.71-.14,7.38,7.38,0,0,0,1.45-1.4,10.23,10.23,0,0,1,1.27-1.45c.3-.07.26-.42.46-.57a.69.69,0,0,0,.26-.57c.36-.36.43-.88.71-1.3a2.37,2.37,0,0,0,.58-1.47c.34-1,.64-2,1-2.9.18-.43.21-.9.41-1.32,0,0,0-.07,0-.07s-.15-.05-.2,0a1.57,1.57,0,0,0-.26.19,2.9,2.9,0,0,1-2.21.64,4.28,4.28,0,0,1-1-.29,6.08,6.08,0,0,1-1.06-.51c-.27-.13-.52-.26-.59-.58a2.51,2.51,0,0,1-.66-2.09,3.25,3.25,0,0,0,0-.54A2.53,2.53,0,0,1,75,39.57a8.88,8.88,0,0,1,2.6-2.07,1.45,1.45,0,0,1,.81-.21c.29,0,.58,0,.87,0a.78.78,0,0,0,.51-.13.34.34,0,0,1,.29,0,8,8,0,0,1,.94.71,2.76,2.76,0,0,1,.66,1.21,2.11,2.11,0,0,1,.24,1c0,.37.28.65.23,1a5.24,5.24,0,0,0,0,1c0,.11.1.15.21.09a9.56,9.56,0,0,0,2.65-2,5.11,5.11,0,0,0,.41-.62,13.65,13.65,0,0,1,1.41-1.89,11.48,11.48,0,0,1,3.51-2.42,1.23,1.23,0,0,1,.52-.12c.22,0,.49.06.64,0,.49-.34.88-.07,1.29.14a1.48,1.48,0,0,0,.29.12c.13,0,.33-.08.31-.22-.09-.7.32-1.33.25-2a10.64,10.64,0,0,0,.25-1.68c.12-.62.3-1.24.47-1.85a3.76,3.76,0,0,0,.14-.73,1.24,1.24,0,0,1,.13-.73c.07-.11-.18-.34-.31-.27-.31.17-.67,0-.94.15a2.61,2.61,0,0,1-.94.18,8.13,8.13,0,0,1-1.48.22c-.5,0-1,0-1.51,0-.29,0-.55.17-.81.09a.74.74,0,0,0-.72.05c-.49-.33-.94.11-1.43.07a13.26,13.26,0,0,0-1.41,0c-.5,0-1,0-1.52,0a4.49,4.49,0,0,1-.71.1c-.36-.05-.68.12-1,.09a6.41,6.41,0,0,0-1,0,6.2,6.2,0,0,0-2.23.2.22.22,0,0,1-.11,0,3.82,3.82,0,0,0-1.18.06,3,3,0,0,1-1.16.16,4,4,0,0,0-.93.23,15,15,0,0,0-3,1,4.57,4.57,0,0,0-2.54,2.75,2.65,2.65,0,0,0-.19,1.23,1.84,1.84,0,0,0,.31,1.11c.14.16.26.34.41.5a.52.52,0,0,0,.27.15,2.68,2.68,0,0,0,2.28-.66,3.14,3.14,0,0,1,.64-.58c.31-.16.63-.36.69-.64s.37-.72.29-1.13a.81.81,0,0,1,0-.22.27.27,0,0,1,.3-.23A.29.29,0,0,1,75,33a3.6,3.6,0,0,1-.86,2.67,2.78,2.78,0,0,1-.68.52,2.88,2.88,0,0,1-1.29.71,2.24,2.24,0,0,1-1.68.17,1.93,1.93,0,0,1-1.31-1c0-.36-.27-.65-.24-1a5.3,5.3,0,0,1,.2-1.8A6.18,6.18,0,0,1,71,30.62a6.11,6.11,0,0,1,2.62-1.14c.1,0,.19-.08.29-.1A5.69,5.69,0,0,1,75.23,29c.42,0,.8-.26,1.25-.22s.81-.24,1.25-.21a2,2,0,0,0,1.16-.17c.11-.06.28,0,.43,0a3.75,3.75,0,0,0,1.48-.19c.18-.09.43,0,.64,0l3.26,0a1.93,1.93,0,0,0,1-.15c.16-.1.42,0,.64,0h3.25a1.46,1.46,0,0,0,.84-.14.78.78,0,0,1,.41,0c.4,0,.8-.05,1.2,0s.73-.28,1.14-.22.66-.26,1-.21c.11,0,.24-.13.36-.21a1.28,1.28,0,0,0,.47-.82,5.36,5.36,0,0,0,.29-1.13,8.19,8.19,0,0,1,.33-1.34,11.8,11.8,0,0,1,.49-1.29c.15-.43.24-.89.38-1.32q.75-2.43,1.64-4.82c.32-.31.07-.77.34-1.12a2.22,2.22,0,0,0,.31-1,5.55,5.55,0,0,1,.39-1.1C99.7,12.1,100,11,100.45,10c.17-.39.18-.83.37-1.22s.26-.73.41-1.09a7.72,7.72,0,0,1,.56-1.25c.39-.6.63-1.28,1-1.91a9.36,9.36,0,0,1,2.41-2.86A8.39,8.39,0,0,1,106.76.56,11.16,11.16,0,0,1,108.37,0a1.78,1.78,0,0,1,1.31.32,4.64,4.64,0,0,1,1.47,1.52,3.75,3.75,0,0,1,.65,1.35A4.85,4.85,0,0,1,112.08,5c0,.28,0,.59,0,.87s.27.45.06.69a.68.68,0,0,1,0,.7.72.72,0,0,0-.05.42,7.26,7.26,0,0,1-.23,1.79,7.93,7.93,0,0,1-.44,1.74c-.32.86-.5,1.76-.81,2.63s-.66,1.63-1,2.47a6,6,0,0,1-.84,1.36c-.26.38-.44.81-.72,1.19a21,21,0,0,1-2.1,2.32c-.48.49-1,.95-1.48,1.43a2.21,2.21,0,0,1-.32.29l-3.35,2.3c-.32.21-.75.23-1,.56-.37,0-.53.49-.94.48-.18,0-.23.14-.25.29-.19,1.05-.48,2.07-.67,3.12,0,.1-.09.19-.11.3-.06.53-.52.94-.5,1.5s-.25,1-.27,1.58a2.91,2.91,0,0,1-.2.81A16,16,0,0,1,96.33,36a1,1,0,0,0-.1.41,6.68,6.68,0,0,1-.34,1.77c0,.14-.06.28-.08.42a3.57,3.57,0,0,1-.16,1.16c-.17.35,0,.8-.25,1.14a.47.47,0,0,0,0,.21,8.44,8.44,0,0,1,0,.87c0,.24-.15.47-.19.71a6.24,6.24,0,0,0-.24,1.37c0,.26-.17.54-.19.81s-.28.67-.23,1-.19.76-.2,1.16,0,.72,0,1.08-.25.66-.22,1a1.75,1.75,0,0,1-.15,1,1.15,1.15,0,0,0,0,.53c0,.51,0,1,0,1.52a3.57,3.57,0,0,0,.32,1.45,1,1,0,0,0,1,.68.69.69,0,0,0,.5-.15,6.49,6.49,0,0,0,1.2-1.52c.26-.37.4-.84.67-1.21s.23-.84.61-1.12a4.24,4.24,0,0,1,.57-1.37,3.8,3.8,0,0,1,.45-1,3.87,3.87,0,0,0,.4-1c.24-.55.49-1.1.74-1.65a.89.89,0,0,0,0-.73,17.32,17.32,0,0,1-.7-2.22,6,6,0,0,1-.09-1.39c.3-.34.07-.8.26-1.13s0-.81.34-1.12a3,3,0,0,1,.29-1.46,18.75,18.75,0,0,1,1.21-2.61,13.4,13.4,0,0,1,.85-1.23,17.47,17.47,0,0,0,1.18-1.4c.09-.14.28-.22.41-.33a2.08,2.08,0,0,0,.55-.51c.13-.24.38-.31.53-.5s.66-.24,1-.43a1.54,1.54,0,0,1,1-.31.74.74,0,0,0,.4-.1c.25-.14.46,0,.71,0a2,2,0,0,1,1.51,1.48,2.66,2.66,0,0,0,.16.39c.06.17.11.34.17.5-.27.26-.08.64-.25.92a3.22,3.22,0,0,1-.39.64,15.85,15.85,0,0,1-3.18,2.71,2.71,2.71,0,0,1-.39.17l-.29.12c-.1,0-.23,0-.29.12a8.57,8.57,0,0,1-1.59,1.08.87.87,0,0,0-.31.54,8.58,8.58,0,0,1-.43,1.2,10.18,10.18,0,0,0-.45,1.52,11.71,11.71,0,0,0-.18,2.89,2.82,2.82,0,0,0,.6,1.46.4.4,0,0,0,.26.16,1.56,1.56,0,0,0,1-.21c.5-.29.87-.75,1.38-1a.54.54,0,0,0,.23-.22c.29-.59.84-1,1.18-1.53a5.73,5.73,0,0,1,1-1.27,6.52,6.52,0,0,0,.87-1.21A7.64,7.64,0,0,1,110.05,39a4.35,4.35,0,0,0,1-1.28c.35-.61.8-1.18,1.21-1.76.06-.09.16-.15.21-.25.44-1,1.1-1.91,1.63-2.87a17.57,17.57,0,0,1,1.41-2.27,2.38,2.38,0,0,0,.52-1,2.28,2.28,0,0,1,.3-.68,17.21,17.21,0,0,0,1-2.35,1.51,1.51,0,0,1,.13-.29c.62-1.17,1.07-2.41,1.65-3.59a2.69,2.69,0,0,0,.37-1.54,10.32,10.32,0,0,1,.26-1.91,1.67,1.67,0,0,1,.28-.68.75.75,0,0,1,.33-.25,3.35,3.35,0,0,1,.61-.2.92.92,0,0,1,1.07.51,3,3,0,0,1,.28,1c0,.54,0,1.09,0,1.63s-.24.81-.2,1.26a1.66,1.66,0,0,1-.2,1.15c0,.79,0,1.59,0,2.38a1.08,1.08,0,0,0,.25.58,4.44,4.44,0,0,0,.67.7.3.3,0,0,0,.29,0,1.45,1.45,0,0,0,.32-.29,2.28,2.28,0,0,1,1.37-.5c.3,0,.51.22.55.53.08.52-.29,1-.24,1.47-.2.24-.16.54-.23.82a4.45,4.45,0,0,1-.75,1.51,1.38,1.38,0,0,0-.33.66.85.85,0,0,1-.19.38c-.68,1-1.12,2.15-1.69,3.21a7.52,7.52,0,0,1-.86,1.48.42.42,0,0,0,0,.1,6.07,6.07,0,0,1-.65,1.33,8,8,0,0,0-.64,1.23c-.11.26-.31.5-.27.81-.31.6-.38,1.29-.73,1.88-.22,1-.67,1.93-1,2.91a21.46,21.46,0,0,1-.81,2.62c0,.69-.33,1.32-.28,2a1.54,1.54,0,0,1-.16,1.05s0,.07,0,.11c0,.57.27,1.11.21,1.69.17.35.32.71.51,1.06a.92.92,0,0,0,1.08.2,4.44,4.44,0,0,0,1-.71,15.27,15.27,0,0,0,1-1.24c.07-.08.07-.2.11-.3l.21-.48c.29-.62.62-1.21.87-1.84s.4-1.28.63-1.91.45-1.27.75-1.88c.72-1.46,1.25-3,1.87-4.51.34-.82.67-1.64,1-2.47a9.45,9.45,0,0,1,.63-1.46A8.87,8.87,0,0,0,127,35a4.52,4.52,0,0,1,.36-.88,11.62,11.62,0,0,0,.73-1.66c.21-.56.67-1,.71-1.66a6.12,6.12,0,0,0,.74-1.52,12.86,12.86,0,0,0,.62-1.36,8.58,8.58,0,0,1,.95-1.66,10.29,10.29,0,0,1,1.26-1.74c.1-.1.11-.31.22-.36.54-.25.84-.78,1.32-1.1.23-.16.45-.34.68-.51a2,2,0,0,1,1.2-.41,1.62,1.62,0,0,1,1.44.54,2.38,2.38,0,0,1,.68,1.42,11.81,11.81,0,0,1,.18,1.47c0,.47,0,.94,0,1.41a1.17,1.17,0,0,1-.1.41c0,.08-.06.14,0,.17a.27.27,0,0,0,.2,0,1.26,1.26,0,0,0,.3-.31c.47-.81,1.14-1.46,1.68-2.22.36-.09.39-.49.65-.68.77-.59,1.49-1.25,2.27-1.81.3-.22.73-.27,1-.55a14.59,14.59,0,0,1,1.62,0,.84.84,0,0,1,.48.4,4.51,4.51,0,0,1,.77,2.3c0,.14,0,.29,0,.43a3.85,3.85,0,0,1-.08,1.28c-.17.42,0,.87-.27,1.26s-.08.69-.18,1c-.4,1.5-.92,3-1.23,4.5A6.94,6.94,0,0,0,145,34s-.05.06-.06.09a1.14,1.14,0,0,0-.09.3c0,.76-.38,1.44-.44,2.19,0,.5,0,1,0,1.51a1.92,1.92,0,0,0,.29.91c.12.25.4.29.61.42s.33,0,.5-.06A2.88,2.88,0,0,0,147.62,38a18.57,18.57,0,0,0,1.3-2.08,7.93,7.93,0,0,0,.68-1.55c.1-.37.29-.72.06-1.1.18-.27-.25-.63.12-.87a3.17,3.17,0,0,0-.24-1.46,2.59,2.59,0,0,0-.3-.57c-.09-.16-.06-.35,0-.37a.37.37,0,0,1,.38.15,4.26,4.26,0,0,1,.55,1.58c0,.62,0,1.23,0,1.85a1.51,1.51,0,0,1-.05.42,15.15,15.15,0,0,1-1.37,3.11,5.79,5.79,0,0,1-1.07,1.35c-.38.34-.72.71-1.11,1a1.27,1.27,0,0,1-1.37.33,1.53,1.53,0,0,0-.63-.09,2.63,2.63,0,0,1-1.61-.5c-.15-.07-.25-.25-.36-.38s-.14-.28-.25-.34c-.69-.34-.73-1-.81-1.63a12.09,12.09,0,0,1,0-2.17c0-.27.14-.54.18-.82a4.93,4.93,0,0,1,.18-.83c.25-.77.42-1.57.7-2.33a12.2,12.2,0,0,1,.46-1.19c.62-1.24,1-2.59,1.55-3.85a3.37,3.37,0,0,0,.4-1.43c0-.39.28-.73.19-1.15a1,1,0,0,0-.57-.73.69.69,0,0,0-.53,0,4.47,4.47,0,0,0-1,.54,24,24,0,0,0-2.79,2.54.7.7,0,0,0-.14.16c-.6,1.06-1.48,1.92-2.12,2.95a2.07,2.07,0,0,0-.39,1.2,8.06,8.06,0,0,1-.33,1.88,14.74,14.74,0,0,1-.54,1.83,3,3,0,0,0-.23,1.15c0,.5-.31,1-.24,1.47-.32.43,0,1-.38,1.43a4.18,4.18,0,0,1-.23,1.26c-.09.38-.14.77-.25,1.14s-.27.81-.41,1.21c-.39,1.14-.67,2.31-1.07,3.45-.09.26-.33.49-.26.8a7.36,7.36,0,0,1-1.49,2.21.26.26,0,0,1-.38.06.79.79,0,0,1-.25-.33,1.1,1.1,0,0,1,0-.54c.23-.82.32-1.67.52-2.5a3.36,3.36,0,0,0,.11-.62,9.85,9.85,0,0,1,.37-2.09,1.6,1.6,0,0,0,.05-.21,3.6,3.6,0,0,1,.18-1.16c.16-.34,0-.79.25-1.14a9.22,9.22,0,0,1,.25-1.47,10,10,0,0,0,.23-1.47c0-.31.23-.59.2-.93s.28-.8.23-1.26a3.56,3.56,0,0,1,.32-1.22,1,1,0,0,0,.07-.2,6.12,6.12,0,0,1,.47-2.07c.1-.41.28-.81.34-1.23a15.63,15.63,0,0,0,.54-2.27c0-.13.12-.25.16-.39a10.08,10.08,0,0,0,.47-3.37.62.62,0,0,0-.7-.64,1.39,1.39,0,0,0-.71.18,6.23,6.23,0,0,0-1.22.86,11.67,11.67,0,0,0-2.39,3.15c0,.06-.08.12-.11.18a5.52,5.52,0,0,0-.78,1.38c-.13.51-.56.92-.62,1.47-.51.78-.77,1.68-1.24,2.48s-.87,1.86-1.3,2.8a6.38,6.38,0,0,1-.87,2.17c-.11.25-.2.53-.3.79a6.38,6.38,0,0,1-.57,1.38,2.93,2.93,0,0,0-.29.8,4.59,4.59,0,0,1-.46,1.18c-.2.38-.32.79-.5,1.17a8.43,8.43,0,0,0-.38,1,6.41,6.41,0,0,1-.67,1.57c-.41.63-.53,1.39-.91,2a.6.6,0,0,0-.07.3,4.51,4.51,0,0,1-.41,1.53,15.57,15.57,0,0,1-1.58,3.14c-.52.63-1.14,1.2-1.73,1.79a.31.31,0,0,1-.18.09,5,5,0,0,0-1.26.24.5.5,0,0,1-.4-.07c-.35-.32-.76-.54-1.12-.83a13.17,13.17,0,0,1-1.29-1.59c-.11-.12-.1-.33-.16-.5a4.9,4.9,0,0,1-.31-2.53c.14-.6.12-1.2.22-1.8.06-.34.18-.68.21-1a7.11,7.11,0,0,0,.22-1c.34-.35.11-.83.3-1.23a2.72,2.72,0,0,0,.34-1.22,25.19,25.19,0,0,1,1.4-3.78c.33-.59.62-1.21.91-1.81a27.08,27.08,0,0,1,1.69-3,1.54,1.54,0,0,0,.24-.48,4.2,4.2,0,0,1,.86-1.45,12.18,12.18,0,0,0,.93-1.44c.36-.69.78-1.35,1.19-2,.15-.22.21-.39-.07-.53a8.7,8.7,0,0,1-2.15-1.95,4.61,4.61,0,0,1-.87-1.69c-.07-.18.11-.5-.17-.52s-.27.3-.35.5c-.45,1.23-1.16,2.36-1.5,3.63a3.67,3.67,0,0,1-.42.87,2.85,2.85,0,0,0-.42,1,1.21,1.21,0,0,1-.27.57c-.58.61-.87,1.4-1.38,2-.33.42-.36,1-.84,1.34L113.21,35c-.46.85-1,1.61-1.57,2.41a9.89,9.89,0,0,1-1.5,2,2.44,2.44,0,0,0-.35.53c-.37.65-1,1.12-1.25,1.86a.68.68,0,0,1-.21.24,24.38,24.38,0,0,0-1.82,2.24A12.8,12.8,0,0,1,104.74,46a2.86,2.86,0,0,1-1.88.64c-.54-.24-1.19-.25-1.63-.72a1.45,1.45,0,0,0-.32-.29.4.4,0,0,0-.28,0s0,.14-.09.19a7.94,7.94,0,0,0-.63,1.47,10.08,10.08,0,0,0-.67,1.45c-.08.37-.41.63-.5,1a4.25,4.25,0,0,1-.45,1c-.32.64-.63,1.28-1,1.91-.24.44-.5.86-.77,1.28a2.45,2.45,0,0,1-.44.47,1.82,1.82,0,0,1-1.17.46,4,4,0,0,1-2.83-1,2.9,2.9,0,0,1-.65-1c-.23-.44-.18-1-.4-1.42a.26.26,0,0,1,0-.21,1.29,1.29,0,0,0,.12-.84c0-.76,0-1.51,0-2.27a4.27,4.27,0,0,1,.2-1.59.32.32,0,0,0-.07-.29c-.13-.11-.26,0-.37.08-.55.57-1.12,1.13-1.67,1.7A8.62,8.62,0,0,1,87.8,49.2a2.75,2.75,0,0,1-1.73.48c-.21,0-.43,0-.65,0a.78.78,0,0,1-.58-.22c-.22-.18-.54-.27-.69-.49a3,3,0,0,1-1-2.08,1.2,1.2,0,0,0-.11-.74.5.5,0,0,1,0-.41,2.11,2.11,0,0,0,.18-1,11.57,11.57,0,0,1,.54-2.16,3,3,0,0,0,.11-.4.23.23,0,0,0-.07-.19s-.15-.07-.18,0c-.41.29-.82.57-1.2.89a1.2,1.2,0,0,0-.53,1c0,.24-.24.44-.21.71-.48.91-.72,1.93-1.21,2.83a3.84,3.84,0,0,1-.58,1c-.09.09-.1.26-.15.39a11.36,11.36,0,0,1-.64,1.58,3.8,3.8,0,0,0-.23.59,2.7,2.7,0,0,1-.44.84c-.4.51-.76,1-1.15,1.54a4.79,4.79,0,0,1-.36.41c-.56.56-1.11,1.14-1.69,1.68a7.27,7.27,0,0,1-1,.7.53.53,0,0,1-.3.09,4,4,0,0,1-1.29,0,2.7,2.7,0,0,1-1.85-1.32c-.09-.2-.19-.39-.29-.58A.56.56,0,0,0,70,54ZM99.24,25.36a1.17,1.17,0,0,0,.2-.06,19.67,19.67,0,0,0,2.21-1.3c.61-.43,1.2-.9,1.8-1.35A26.13,26.13,0,0,0,106.32,20a22.68,22.68,0,0,0,2-2.61,6.45,6.45,0,0,0,.69-1.33,7.08,7.08,0,0,1,.64-1.33c.3-1.35,1-2.56,1.14-4,0-.06.08-.12.09-.19a11.34,11.34,0,0,0,.55-3.47,1.57,1.57,0,0,1,.16-1,.92.92,0,0,1,0-.69c-.34-.46,0-1.08-.38-1.54.06-.5-.36-.84-.44-1.3s-.59-.79-.9-1.17a1.43,1.43,0,0,0-.64-.35.79.79,0,0,0-.86.09,3.2,3.2,0,0,0-1.32,1.5c-.07.16-.25.27-.31.44-.19.47-.63.76-.84,1.23-.63,1.4-1.47,2.69-2.08,4.09a17.57,17.57,0,0,0-1.09,2.88c-.25.32-.17.75-.34,1.11s-.29.72-.42,1.08c-.29.8-.51,1.62-.75,2.43.09.51-.28.95-.24,1.46a10,10,0,0,0-.41,1.42,24.72,24.72,0,0,0-.65,2.67c0,.51-.3.94-.28,1.45-.42.65-.28,1.46-.59,2.14a.26.26,0,0,0,0,.21C99.11,25.29,99.19,25.32,99.24,25.36Zm-13.84,22a4.86,4.86,0,0,0,0,.54A1.41,1.41,0,0,0,86,49a1,1,0,0,0,1.19,0c.36-.24.77-.39,1.11-.63a23.6,23.6,0,0,0,3.22-3,.69.69,0,0,0,.17-.38,3,3,0,0,1,.21-1.25c-.06-.76.33-1.47.26-2.23a.27.27,0,0,1,0-.2c.27-.45,0-1,.35-1.44-.07-.69.31-1.32.25-2a.68.68,0,0,1,.08-.31,2.1,2.1,0,0,0,.12-1,.32.32,0,0,0-.06-.2c-.23-.23-.46-.46-.7-.67a.2.2,0,0,0-.2,0,3,3,0,0,1-.58.27,2.32,2.32,0,0,0-1.36,1c-.44.56-.79,1.18-1.28,1.71a.5.5,0,0,0-.14.28,1.11,1.11,0,0,1-.26.57c-.35.53-.69,1.07-1,1.64s-.6,1.2-.9,1.81a1.26,1.26,0,0,0-.21.48,2.51,2.51,0,0,1-.36,1.11.6.6,0,0,0-.1.3c.09.52-.3,1-.25,1.46A2,2,0,0,0,85.4,47.37Zm-4.11-6.72c.11-.53-.33-1-.25-1.47-.2-.83-.56-1.42-1.69-.8,0,0-.08,0-.1,0a4.93,4.93,0,0,0-1.86,2.68c-.07.23-.12.47-.21.71a7.48,7.48,0,0,1-.19.83,1,1,0,0,0,0,.62,6,6,0,0,0,.3.8,1,1,0,0,0,.89.63,1.59,1.59,0,0,0,.74-.11,4.78,4.78,0,0,0,1.45-.84,1.14,1.14,0,0,0,.5-1,1.22,1.22,0,0,1,.07-.41Zm28.19-8.26a1.89,1.89,0,0,0-.23-1c-.14-.34-.52-.37-.72-.61s-.64-.27-1-.15A2,2,0,0,0,106.26,32a5.77,5.77,0,0,1-1.12,1.92,1.81,1.81,0,0,0-.38.64c-.2.67-.44,1.34-.69,2a.36.36,0,0,0,0,.2,1.24,1.24,0,0,0,.56.22,5.42,5.42,0,0,0,1.27-.53,12.5,12.5,0,0,0,2.84-2.27A2.46,2.46,0,0,0,109.48,32.39Z"></path><path d="M37.25,37.74c0-.14,0-.32.09-.4.84-.84,1.49-1.86,2.39-2.64a2.71,2.71,0,0,0,.78-1.13,2.93,2.93,0,0,1,1.87-1.65,2,2,0,0,1,.65-.05c.16,0,.22.11.3.25a2.5,2.5,0,0,1,.18,1.57,1.4,1.4,0,0,0-.18,1,2,2,0,0,1-.26,1.13,2,2,0,0,0-.22.71,5.13,5.13,0,0,1-.34,1,2.26,2.26,0,0,0-.28,1.13,1.07,1.07,0,0,1-.2.71,1.83,1.83,0,0,0-.24,1,4,4,0,0,1-.33,1.66,4.05,4.05,0,0,0-.32,1.13c0,.35-.27.66-.21,1a.81.81,0,0,1-.22.6,11,11,0,0,0-.62,1.69,12.15,12.15,0,0,1-.72,2.77c-.22.24-.07.6-.22.81s-.08.65-.23.92a2.48,2.48,0,0,0-.18.83,5.84,5.84,0,0,1-.22.82,9.54,9.54,0,0,1-.29,1.45c-.19.44,0,1-.31,1.35-.05.07,0,.21,0,.32a2.1,2.1,0,0,1-.18.94c-.13.22,0,.59-.06.84-.17.41-.12.85-.25,1.25a7.41,7.41,0,0,0-.13,2.57s.09.11.14.13.17,0,.2,0l.73-1a7.28,7.28,0,0,1,.76-1.29.46.46,0,0,0,.08-.19,9.61,9.61,0,0,1,.78-2.2c.18-.46.24-1,.42-1.42A10.58,10.58,0,0,0,40.89,54a5,5,0,0,1,.34-1,11.22,11.22,0,0,0,.49-1.62c.25-.77.59-1.51.82-2.3A5.56,5.56,0,0,1,43,47.73c.24-.39.38-.85.63-1.24a7.17,7.17,0,0,0,.77-1.75A25.36,25.36,0,0,1,45.9,41a5.69,5.69,0,0,0,.69-1.55,8.6,8.6,0,0,0,.7-1.43c.69-1.28,1.4-2.55,2.13-3.82a8.7,8.7,0,0,1,.6-.76c.28-.37.51-.77.81-1.13a5.92,5.92,0,0,1,2.24-1.62,1.31,1.31,0,0,1,1.23.08,2.15,2.15,0,0,1,1.17,1.57c0,.24.16.47.18.72a7.85,7.85,0,0,1,0,1c0,1.66,0,3.33,0,5a1.18,1.18,0,0,1-.17.82c0,.54,0,1.08,0,1.63a.12.12,0,0,0,.05.08c.06,0,.15,0,.17-.06.36-.69.72-1.38,1.06-2.08.11-.22.15-.48.27-.69.56-1,1.12-2,1.7-3,.33-.55.7-1.07,1.05-1.61a10.15,10.15,0,0,1,1.53-1.93c.23-.23.46-.45.68-.69a20.38,20.38,0,0,1,2.14-1.8c.22-.19.44-.36.67-.53a.81.81,0,0,1,1,.08,1.69,1.69,0,0,1,.49.93c0,.28.42.57.09.89a1.46,1.46,0,0,1,.16.82v3.58a1.27,1.27,0,0,1-.16.83s0,.14,0,.21c0,.39,0,.79,0,1.19a9.39,9.39,0,0,0-.17,1.15c0,.9-.35,1.76-.27,2.67a5.07,5.07,0,0,0-.22,1.69,6.29,6.29,0,0,0-.2,1.15,2,2,0,0,1-.18,1.15.73.73,0,0,0,0,.33c.07.94-.26,1.84-.25,2.77a.52.52,0,0,1,0,.22,4.63,4.63,0,0,0-.42,2.29c-.26.5-.09,1.07-.22,1.58a12.62,12.62,0,0,0-.19,3c0,1,0,2,0,3a6.23,6.23,0,0,0,.32,1.12,2.43,2.43,0,0,0,1,1.38.56.56,0,0,0,.69,0c.2-.21.48-.39.58-.64.24-.6.68-1.08,1-1.66s.53-1.32.81-2c.37-.88.71-1.78,1.15-2.63.07-.15.16-.33.38-.33h0a1.15,1.15,0,0,1-.08.63,4.43,4.43,0,0,0-.55,1.14,8.61,8.61,0,0,1-.46,1.07c-.08.2-.14.4-.22.59a3.94,3.94,0,0,1-.78,1.62A12.1,12.1,0,0,1,67,60.84a.83.83,0,0,1-.35.37c-1.14.82-1.07.71-2.42.19a7.76,7.76,0,0,1-.77-.37,1.7,1.7,0,0,1-1.07-1.24,2,2,0,0,0-.23-.49,3.52,3.52,0,0,1-.4-1.53,1.56,1.56,0,0,0-.14-.84,1.45,1.45,0,0,1-.06-.63c0-.83,0-1.66,0-2.49,0-.58.25-1.11.2-1.7a5.16,5.16,0,0,1,0-1.62A12.19,12.19,0,0,0,62,47.6a10.14,10.14,0,0,0,.21-1.36A2.24,2.24,0,0,1,62.35,45a1.67,1.67,0,0,0,0-.64,1.46,1.46,0,0,1,.16-.84.42.42,0,0,0,0-.2,5.91,5.91,0,0,1,.06-1.4,4,4,0,0,0,.17-1.27,4.07,4.07,0,0,1,.2-1c.08-.34,0-.72.16-1a.82.82,0,0,0,.07-.31,8.93,8.93,0,0,1,.2-1.26c.07-.38.32-.73.24-1.15s.22-.68.2-1a2,2,0,0,1,.27-1c.23-.42.13-.92.42-1.31a4.49,4.49,0,0,0,.5-1.17,3.1,3.1,0,0,0,.08-1.48.28.28,0,0,0-.4-.16,18.87,18.87,0,0,0-3.55,3.12A16.6,16.6,0,0,0,60,34.51c-.61.92-1.22,1.83-1.79,2.77a14.4,14.4,0,0,0-.81,1.62,10.2,10.2,0,0,1-1.23,2.58,4.87,4.87,0,0,1-.48,1.18,10.23,10.23,0,0,0-.55,1.16,6.86,6.86,0,0,0-.36,1.11,11.17,11.17,0,0,0-.37,1.21A8.71,8.71,0,0,1,54,47.91c-.18.57-.36,1.15-.5,1.73a7,7,0,0,1-.66,1.9,2.24,2.24,0,0,1-.27.45,6.8,6.8,0,0,0-1.28,1.45.14.14,0,0,1-.08.07.51.51,0,0,1-.2,0c-.06,0-.14-.09-.14-.14,0-.94,0-1.87,0-2.81a7.64,7.64,0,0,0,.22-2.13c0-.39.14-.77.19-1.15a3.48,3.48,0,0,1,.16-1c.15-.35.07-.76.23-1.15s.06-.77.23-1.14a1.37,1.37,0,0,0,0-.54,1.88,1.88,0,0,1,.2-1.14c-.05-.48.24-.88.26-1.36s.19-.82.2-1.26.14-.62.18-.93,0-.58,0-.86.16-.41.18-.61c0-.54.21-1,.26-1.58a11.7,11.7,0,0,1,.51-2.06c.11-.37.16-.75.29-1.12s-.14-.89-.31-1.32a.46.46,0,0,0-.57-.17,7.2,7.2,0,0,0-1.37.84,18.1,18.1,0,0,0-1.39,1.63,9.5,9.5,0,0,0-1.13,1.68,41.28,41.28,0,0,0-2.19,4c-.57,1.27-1.19,2.5-1.78,3.76a12.69,12.69,0,0,0-.53,1.5,2.44,2.44,0,0,0-.26,1.13c-.19.3-.41.59-.58.91A26.3,26.3,0,0,0,42.65,50c-.29.8-.43,1.64-.78,2.42s-.53,1.61-.81,2.42A15.93,15.93,0,0,1,40.22,57c-.23.44-.28.94-.47,1.4a18.59,18.59,0,0,1-1,2,2.39,2.39,0,0,0-.24.48c-.13.63-.71.86-1.1,1.25a1.06,1.06,0,0,1-1.11,0,.47.47,0,0,1-.17-.26c0-.22,0-.44,0-.65,0-.43-.29-.8-.24-1.26a11.09,11.09,0,0,0,0-1.29c0-.44,0-.87,0-1.3s0-.87,0-1.3a6,6,0,0,1,.2-2c-.23-.31,0-.6,0-.91a7.85,7.85,0,0,1,0-1,4.06,4.06,0,0,1,.21-1.8,6.36,6.36,0,0,1,.27-1.79c.07-.53.18-1.05.23-1.58.31-.43,0-1,.37-1.44.06-.53.25-1,.36-1.55a12,12,0,0,1,.3-1.45c.35-1.08.42-2.22.79-3.3a.67.67,0,0,0,0-.31,1.82,1.82,0,0,1,.27-1c.34-.78.54-1.61.83-2.4,0-.08,0-.2-.08-.3l-.17.12s0,.06-.08.07c-.27.14-.25.52-.55.64s-.35.43-.54.64a5,5,0,0,1-1.17,1.08Z"></path><path d="M35.07,95a2.19,2.19,0,0,1,.65-1c.19-.17.36-.36.54-.53a.85.85,0,0,0,.33-.76,5,5,0,0,1,.5-2.27,21.62,21.62,0,0,1,2.8-4.78,19.19,19.19,0,0,1,2.58-2.75,3.51,3.51,0,0,1,1.64-1c.39-.08.67-.42,1.08-.43s.8,0,1.19,0a1.43,1.43,0,0,1,1.16.46,5.54,5.54,0,0,1,.94,1.54,4.49,4.49,0,0,1,.27,1.24s0,.08,0,.1a.33.33,0,0,0,.16.11.25.25,0,0,0,.18-.08,4.67,4.67,0,0,0,.26-.8,1.06,1.06,0,0,1,.22-.48,2,2,0,0,1,2.2-.76c.06,0,.11.07.16.12s0,.07,0,.1a7.19,7.19,0,0,1-.29,3c0,.07-.1.13-.1.19A8.38,8.38,0,0,1,51,88.6c-.15.51-.26,1-.44,1.52a2.84,2.84,0,0,0-.07,1c0,.36,0,.72,0,1.08a.31.31,0,0,0,.21.19,1.08,1.08,0,0,0,.72-.12,6,6,0,0,0,1.91-1.54,1.76,1.76,0,0,0,.36-.87,10.52,10.52,0,0,1,.55-1.94,12.81,12.81,0,0,1,1-2.81c-.06-.6.39-1.06.5-1.62a2.75,2.75,0,0,1,.46-1,22.63,22.63,0,0,0,1.75-3.3c.39-.8.69-1.64,1-2.46a19.25,19.25,0,0,1,1.91-3.69c.63-1,1.3-1.88,1.94-2.82a6.26,6.26,0,0,0,.34-.55,4.32,4.32,0,0,1,.7-1,4.51,4.51,0,0,0,.67-.83,9.72,9.72,0,0,1,1.85-2.1c.11-.09.2-.23.33-.27a5.83,5.83,0,0,0,1.1-.66,3.18,3.18,0,0,1,1.83-.5,1.08,1.08,0,0,1,.91.47,3.37,3.37,0,0,1,.53.8,3.47,3.47,0,0,1,.06,1,5.61,5.61,0,0,1-.5,2.28c0,.13-.15.26-.14.39a2.6,2.6,0,0,1-.46,1.4c-.23.44-.33.94-.58,1.38-.65,1.14-1.38,2.24-2.1,3.34-.12.17-.3.31-.44.48a16.24,16.24,0,0,0-1.47,1.84,1.64,1.64,0,0,1-.21.25l-2.47,2.71A7.32,7.32,0,0,0,61.6,82a3.89,3.89,0,0,1-.6.62,5.35,5.35,0,0,0-1,1.17,1.44,1.44,0,0,1-.46.57c-.24.15-.25.43-.45.58a3.35,3.35,0,0,0-1,1.71,1.6,1.6,0,0,0-.05.21c-.09.57-.56,1-.63,1.57a5.72,5.72,0,0,1-.51,1.51c-.43,1-.79,2.12-1.16,3.19-.11.34-.17.69-.25,1s-.2.68-.32,1c-.22.6-.39,1.22-.55,1.83-.22.85-.55,1.67-.78,2.53,0,.06-.11.12-.1.18,0,.62-.23,1.2-.24,1.8,0,1.23,0,2.46,0,3.68a3.22,3.22,0,0,0,.53,1.71c.36.58.75.62,1.35.22l.53-.36a.54.54,0,0,0,.14-.16c.36-.48.8-.88,1.13-1.39A11.73,11.73,0,0,0,58,103.9c.45-.93.94-1.84,1.39-2.77a34.31,34.31,0,0,1,1.72-3.07c.58-1,1.28-1.79,1.94-2.68a2.94,2.94,0,0,1,.3-.31c.07-.08.86-1.13.89-1s-.71,1.2-.74,1.25c-.3.4-.6.8-.92,1.19a18.63,18.63,0,0,0-1.37,2c-.29.48-.55,1-.86,1.47a16.17,16.17,0,0,0-1.38,2.76c-.09.23-.31.41-.39.63a3.67,3.67,0,0,1-.21.61A12.33,12.33,0,0,1,56,107.15a2.49,2.49,0,0,1-1.64.65,1,1,0,0,1-.78-.28c-.17-.18-.44-.25-.62-.42a4.12,4.12,0,0,1-.87-.95,4.43,4.43,0,0,1-.47-1.51,7.33,7.33,0,0,1-.27-1.8,7.56,7.56,0,0,1-.2-2.55,1.2,1.2,0,0,1,0-.33c.12-.44.29-.87.39-1.32a9.48,9.48,0,0,1,.14-1.27,17.87,17.87,0,0,0,.52-2.16,3.76,3.76,0,0,0,.25-1.15c0-.35.26-.65.22-1,0-.12.12-.25.17-.38a.29.29,0,0,0,0-.2.21.21,0,0,0-.18,0c-.22.11-.44.24-.65.36a3,3,0,0,1-.45.27,1.55,1.55,0,0,1-1.72-.12l-.29-.13a1.51,1.51,0,0,1-.84-.77c-.15-.33-.38-.33-.68,0-.81.76-1.65,1.5-2.47,2.24a1.69,1.69,0,0,1-.33.28c-.81.39-1.4,1.12-2.24,1.46a8.08,8.08,0,0,1-2.1,1c-.46.22-.89,0-1.32-.07-.1,0-.19-.1-.29-.14a8.17,8.17,0,0,1-1.76-1.2,2,2,0,0,1-.65-1.09,1.27,1.27,0,0,0-.18-.37c-.06-.09-.13-.15-.26-.07s-.57.28-.69.64a.53.53,0,0,1-.61.35Zm3.9-.92a3.25,3.25,0,0,0,0,.54,2.11,2.11,0,0,0,1.4,1.84.56.56,0,0,0,.42,0,13,13,0,0,0,2.56-1.27c.28-.22.59-.39.88-.6a6,6,0,0,0,.93-.73c.24-.26.67-.29.78-.69.62-.32.95-1,1.59-1.26.32-.38.74-.72.42-1.31a.93.93,0,0,1-.06-.41,2.86,2.86,0,0,1,.17-1.36,4,4,0,0,1,.39-1.76.54.54,0,0,0,0-.41.92.92,0,0,1,0-1.1s.05-.17,0-.2c-.3-.28-.17-.69-.28-1-.19-.59-.61-1-.83-1.6-.21-.08-.35-.33-.65-.2s-.46,0-.62.12-.3.38-.47.55a2.17,2.17,0,0,1-.66.54.73.73,0,0,0-.35.38,8.63,8.63,0,0,1-.71,1.07,6.46,6.46,0,0,1-.87,1.07,1.19,1.19,0,0,0-.43.72,1.66,1.66,0,0,1-.46.82,9.13,9.13,0,0,0-1.43,2.11,1.68,1.68,0,0,1-.21.37,10.29,10.29,0,0,0-1.26,2.33A3.33,3.33,0,0,0,39,94.07Zm31.84-27.6A3.26,3.26,0,0,0,70,65.05c-.47-.34-.7-.21-1,0a3.41,3.41,0,0,0-1,1.5,2.82,2.82,0,0,1-.34.67c-.81,1.21-1.54,2.48-2.25,3.75-.58,1-1.1,2.07-1.68,3.09a23.47,23.47,0,0,0-1.49,3.41A9.57,9.57,0,0,1,61.63,79a9.21,9.21,0,0,1-1,1.67,2.53,2.53,0,0,1-.47,1.06,12,12,0,0,0-.54,1.15c0,.07-.07.13-.08.19a.49.49,0,0,0,0,.2c.06,0,.14,0,.18-.06l3.3-3.56a6.32,6.32,0,0,1,1.11-1.31,5.37,5.37,0,0,0,.51-.56,18.71,18.71,0,0,1,1.85-2.23,14.18,14.18,0,0,0,1.87-2.6c.37-.73.74-1.46,1.09-2.2A2.5,2.5,0,0,0,70,69.63c0-.45.34-.77.43-1.19s.16-.61.22-.93S70.55,66.79,70.81,66.47Z"></path><path d="M35.07,95c-.11.41-.5.59-.77.87A4.46,4.46,0,0,1,33,97l-.09.07c-.72.81-1.63,1.41-2.39,2.17l-4.61,4.59a22.23,22.23,0,0,1-3.13,2.43,15.1,15.1,0,0,1-4.26,1.9,4.51,4.51,0,0,1-.53.07c-.39.06-.79-.08-1.17.12a.37.37,0,0,1-.18,0,11.38,11.38,0,0,0-2-.58,16.91,16.91,0,0,1-2.32-1.08,7.57,7.57,0,0,1-2-1.75,3.53,3.53,0,0,1-.83-1.59,6,6,0,0,0-.34-.89,5.1,5.1,0,0,1-.26-1.69,9.61,9.61,0,0,1-.2-2.88,4.82,4.82,0,0,1,0-.76c0-.21.14-.4.17-.61a6,6,0,0,1,.09-.74c.07-.21.11-.42.19-.61a5.93,5.93,0,0,0,.24-.71c0-.16.25-.31.06-.47A.82.82,0,0,0,9,93.9a.83.83,0,0,0-.32,0,8.53,8.53,0,0,1-2.89.18,7,7,0,0,1-1.42-.4c-.37-.22-.8-.26-1.16-.52A7.1,7.1,0,0,1,1,90.88a4.09,4.09,0,0,1-.61-1.69c0-.49-.2-1-.27-1.46a5.33,5.33,0,0,1,0-2A6.38,6.38,0,0,1,1.59,82.6a5.78,5.78,0,0,1,.5-.69,9.82,9.82,0,0,1,3-2.19,1.31,1.31,0,0,1,.51-.12c.65,0,1.3,0,2,0a2.75,2.75,0,0,1,1.34.62,3.17,3.17,0,0,1,.91,1.31,3.91,3.91,0,0,1,.28,2.2c0,.13-.15.24-.25.34a.22.22,0,0,1-.19,0c-.06-.06-.15-.17-.14-.24s.14-.33.17-.5a2.3,2.3,0,0,0-.47-1.81,3.28,3.28,0,0,0-.89-.89,2.09,2.09,0,0,0-1.39-.43c-.26,0-.51,0-.76,0a.72.72,0,0,0-.4.11,1,1,0,0,1-.77.32.38.38,0,0,0-.21,0l-.92.73c-.1.42-.52.58-.75.9l-.63.87a8.71,8.71,0,0,0-1.06,2.41c0,.17-.13.33-.18.5a.87.87,0,0,0,0,.32V88a1.84,1.84,0,0,0,0,.33c0,.15.22.3,0,.47l.27.8a7.36,7.36,0,0,1,.31.9,2.75,2.75,0,0,0,.52,1,2.57,2.57,0,0,0,.72.75,7.58,7.58,0,0,0,1.29,1A5.18,5.18,0,0,0,6,93.66a14.29,14.29,0,0,0,2.17,0c.45,0,.88-.24,1.35-.25.16,0,.3-.19.33-.38a1.74,1.74,0,0,1,.08-.53c.42-.72.53-1.54.91-2.27a10,10,0,0,0,.84-1.85,6.16,6.16,0,0,1,.6-1.13,4.17,4.17,0,0,0,.26-.46c.42-.91,1-1.73,1.45-2.62a12.85,12.85,0,0,1,.84-1.24l.84-1.24c.3-.44.6-.88.91-1.31s.64-.77.92-1.19a21.21,21.21,0,0,1,1.26-1.73,4.09,4.09,0,0,1,.38-.52,10.71,10.71,0,0,0,1.38-1.64,7.12,7.12,0,0,1,1.9-1.89,1,1,0,0,0,.23-.22,18.78,18.78,0,0,1,3-2.39,6.89,6.89,0,0,1,1-.6c.26-.12.49-.3.73-.44a3,3,0,0,1,.67-.34c1.16-.32,2.23-.91,3.41-1.17.43-.29,1-.06,1.43-.36a5.55,5.55,0,0,1,1.08,0,5.77,5.77,0,0,1,1.9.64,1.79,1.79,0,0,1,.63.84c0,.06,0,.16,0,.21A3.29,3.29,0,0,1,37,71.66,6.91,6.91,0,0,1,36.72,73a9.46,9.46,0,0,1-.57,1.37,3.49,3.49,0,0,1-.63,1,8.68,8.68,0,0,0-.79,1,14.58,14.58,0,0,1-2.38,2.76,7.15,7.15,0,0,0-1.12,1.08c-.36.1-.35.53-.64.7a3,3,0,0,0-.71.61c-.23.22-.49.42-.73.64s-.47.44-.7.67a6.41,6.41,0,0,1-.7.68c-.83.62-1.54,1.39-2.43,1.94a12.89,12.89,0,0,0-1.1.85l-3.07,2.33a4.3,4.3,0,0,1-.45.29c-.33.21-.67.4-1,.63a30.59,30.59,0,0,1-3.92,2.18c-.56.29-1.13.58-1.67.92a1,1,0,0,0-.47.56,3.91,3.91,0,0,1-.51,1.18A9.77,9.77,0,0,0,12.3,97c.09.23-.3.4-.06.69s-.17.36-.16.58a1.35,1.35,0,0,1-.16.73.83.83,0,0,0,0,.42c0,1.09,0,2.17,0,3.25a3.85,3.85,0,0,0,.39,1.54,5.41,5.41,0,0,0,.7,1.06c.44.52.95,1,1.44,1.46a3.07,3.07,0,0,0,.51.38,2.61,2.61,0,0,0,1.63.46,4.71,4.71,0,0,1,.75,0,5.26,5.26,0,0,0,1.9-.25c.48-.1.88-.49,1.41-.45.42-.2.83-.41,1.24-.62s.92-.42,1.34-.67a10.14,10.14,0,0,0,1.12-.83,7.94,7.94,0,0,1,1-.82c.35-.22.47-.7.89-.87.26-.49.78-.71,1.13-1.11s.72-.72,1.08-1.08l1.16-1.14c.36-.35.7-.72,1.08-1.06s.82-.69,1.23-1,.77-.74,1.21-1.06a13.18,13.18,0,0,0,1.49-1.41.53.53,0,0,1,.48-.18Zm1.55-23.47c-.09-.5-.15-1-.29-1.54a1.93,1.93,0,0,0-.43-.73c-.41-.5-.64-.6-1.78-.87a1.69,1.69,0,0,0-1,.27,4.48,4.48,0,0,1-.68.29,10.84,10.84,0,0,0-2,1c-.55.57-1.29.92-1.79,1.54a.88.88,0,0,1-.32.29,7.69,7.69,0,0,0-1.45,1.28A19.1,19.1,0,0,0,25.31,75a17.44,17.44,0,0,0-1.43,1.87,8,8,0,0,1-.5.69,5.63,5.63,0,0,0-.58.76,32.94,32.94,0,0,1-2.33,3.19,6.56,6.56,0,0,1-1.08,1.33,9,9,0,0,1-1,1.6c-.45.65-.84,1.32-1.25,2s-.9,1.45-1.3,2.2-.61,1.28-.91,1.93c-.21.45-.42.9-.62,1.35a.25.25,0,0,0,.05.2s.12,0,.16,0c.47-.26.95-.5,1.39-.79s1-.38,1.46-.63l.1,0c1.1-.78,2.34-1.35,3.38-2.23.4-.12.62-.48.94-.7.86-.58,1.67-1.22,2.47-1.88.47-.38,1-.72,1.43-1.13.28-.26.66-.41.94-.68s.61-.47.87-.76.59-.51.88-.77.59-.51.86-.78l3.85-3.81a5,5,0,0,0,.66-.72,30.89,30.89,0,0,0,2.2-3.25c.39-.42.38-1,.58-1.47A4.53,4.53,0,0,0,36.62,71.52Z"></path><path d="M28.78,47.27c0,.11,0,.27-.05.31-.53.41-.83,1.06-1.47,1.36-.28.13-.47.45-.7.67a2.75,2.75,0,0,1-.91.75.87.87,0,0,0-.34.27,22.62,22.62,0,0,1-2,1.78c-.08.08-.16.2-.24.21-.54.05-.84.53-1.32.68-.24.07-.48.18-.7.23a3.15,3.15,0,0,1-2.6-.71,5.5,5.5,0,0,1-1.16-2.93,4.71,4.71,0,0,1,.52-2.16c.17-.35.27-.73.46-1.07s.48-.63.68-1a5.32,5.32,0,0,1,3.26-2.27,1.23,1.23,0,0,1,.63,0,2.94,2.94,0,0,1,1.55,1,4.42,4.42,0,0,1,.68,1.19c.1.19,0,.34-.19.45a.28.28,0,0,1-.16,0,3.45,3.45,0,0,0-1-1.61c-.18-.21-.44-.21-.66-.3s-.46-.19-.69,0a2.15,2.15,0,0,0-1.45.6A15.75,15.75,0,0,0,19.78,46c-.06.08-.15.15-.21.24-.16.24-.31.48-.46.72s0,.52-.28.68-.17.53-.34.77a.77.77,0,0,0-.11.4,12.85,12.85,0,0,0,0,1.52,6.39,6.39,0,0,0,.24,1c0,.13.15.26.16.39a1.08,1.08,0,0,0,.78,1,6.14,6.14,0,0,0,.89.36,1,1,0,0,0,.73-.06c.35-.18.73-.3,1.08-.45a2.2,2.2,0,0,0,.56-.32,13.4,13.4,0,0,1,1.54-1.15.24.24,0,0,0,.08-.06l2.1-1.86a3.87,3.87,0,0,1,.83-.67,1,1,0,0,0,.45-.46,1.56,1.56,0,0,1,1-.78Z"></path><path d="M87.66,67.45a1,1,0,0,1-.89-.5.24.24,0,0,1,0-.2,10.51,10.51,0,0,1,.46-1.17c.07-.13.27-.21.42-.29s.21,0,.3-.07.3-.21.49-.07.41.21.53.47c.24.52.23.77-.12,1.14a2.46,2.46,0,0,1-.86.61A1,1,0,0,1,87.66,67.45Z"></path><path d="M37.24,37.73a1.31,1.31,0,0,1-.1.4,3.16,3.16,0,0,1-.59.75,7.84,7.84,0,0,0-.56.62c-.87.82-1.57,1.78-2.37,2.65s-1.47,1.67-2.25,2.46a8.47,8.47,0,0,0-.58.76.48.48,0,0,1-.49.17h0c0-.1,0-.23.05-.31a2.29,2.29,0,0,1,.36-.4c1.17-1.08,2.08-2.38,3.22-3.48a17.06,17.06,0,0,1,1.64-1.85A17.82,17.82,0,0,1,36.9,38a2,2,0,0,1,.35-.21Z"></path><path d="M30.3,45.54c0,.1,0,.25,0,.3a7.21,7.21,0,0,1-1.49,1.43h0c0-.11,0-.25,0-.31a6.7,6.7,0,0,1,1.48-1.43Z"></path><path d="M158.25,83.71c-.12.32-.51.31-.7.57a6.24,6.24,0,0,1-.68.68s-.05,0-.07,0a.15.15,0,0,1,0-.09.34.34,0,0,1,.06-.2c.21-.24.44-.46.66-.7a.83.83,0,0,1,.79-.23Z"></path><path d="M72.81,8.2c1.24,0,2.47,0,3.71,0,.19,0,.41.06.55,0s.26,0,.32-.12,0-.55,0-.72-.23-.23-.26-.18a2.43,2.43,0,0,1-.72.15H72.48a1,1,0,0,1-.54-.08.54.54,0,0,0-.62,0c-.18.11-.45,0-.59.24,0,.08-.18.12-.08.27a1.41,1.41,0,0,1,.1.31c.07.24-.3.46,0,.7-.32.24,0,.55-.09.8a.64.64,0,0,0,0,.63.86.86,0,0,1,0,.85,1.57,1.57,0,0,0-.13.76c0,.67,0,1.34,0,2a2.7,2.7,0,0,1,0,1,2.76,2.76,0,0,0-.17,1.09,1,1,0,0,1,0,.44c-.25.4.16.77,0,1.16,0,0,0,.06.06.09a1.2,1.2,0,0,0,1.18.42,1.14,1.14,0,0,1,1.06,0,.65.65,0,0,0,.53,0,1.61,1.61,0,0,1,.86-.13h2.8a.13.13,0,0,0,.14-.13.58.58,0,0,1,.07-.3c0-.1,0-.22,0-.32a.13.13,0,0,0-.12-.16c-.17,0-.24-.11-.41-.11-.39,0-.88.11-1.27.11H71.7c-.21,0-.25-.1-.14-.27a.52.52,0,0,0,.07-.21,3.68,3.68,0,0,1,.06-1.11A3.65,3.65,0,0,0,71.86,14c0-.57,0-.58.54-.59a10.1,10.1,0,0,1,1.23,0,.9.9,0,0,0,.85-.35c.13-.17.07-.22.15-.45s-.47-.42-.73-.38c-.63.1-1.17,0-1.75.07-.16,0-.26-.1-.26-.28V9.06C71.9,8.15,71.78,8.17,72.81,8.2Z"></path></g></g></svg> 