<?xml version="1.0" encoding="UTF-8"?> <svg xmlns="http://www.w3.org/2000/svg" viewBox="0 0 105.17 81.12"><defs><style>.cls-1{fill:#1f1f20;}.cls-2{fill:#fefefe;}</style></defs><title>news</title><g id="Layer_2" data-name="Layer 2"><g id="Layer_0_Image" data-name="Layer 0 Image"><path class="cls-1" d="M21.86,0c-.23.19-.31.4.06.46A6.46,6.46,0,0,0,23,.52l75.56.8c1.8,0,1.8,0,1.61,1.86C99.88,6,99.88,6,102.7,5.78c2.62-.18,2.59-.18,2.39,2.46Q103.46,30.13,101.84,52c-.63,8.45-1.29,16.89-1.93,25.34-.06.88-.11,1.76-.14,2.64s-.42,1.17-1.29,1.13c-2.44-.1-4.87-.17-7.31-.2-20.47-.18-40.94-.69-61.4-1.09-5.36-.11-10.71-.25-16.07-.31a1.43,1.43,0,0,1-1.59-1.19c-1-3.19-1-3.17-4.41-3.25-2.08,0-4.16-.16-6.24-.17C1,74.9.53,74.54,0,74.65V71.77a1.23,1.23,0,0,0,0-1.92V66.73c.94.55.62-.34.64-.62.33-6.46.63-12.92,1-19.38q.86-17.05,1.72-34.1c.19-3.62.57-7.26.43-10.87C3.73.18,4.36.4,5.25.4c2.6,0,5.19,0,7.79,0,.29,0,.93.42.9-.42ZM51.65,1.93v0q-23.2-.22-46.42-.47c-.84,0-1.38.15-1.11,1.07A13.16,13.16,0,0,1,4.28,7Q3.7,20.63,3,34.21,2.12,53.38,1.14,72.55c-.06,1.14.11,1.48,1.3,1.51,7.64.17,15.27.43,22.9.66q34.29,1.07,68.58,2.15c.77,0,1.08-.18,1.11-1,0-1.6.16-3.2.26-4.79q.7-12.21,1.42-24.43.81-14.19,1.63-28.38c.28-4.86.52-9.73.88-14.6.08-1.12-.13-1.4-1.27-1.41C82.52,2.21,67.09,2.06,51.65,1.93Zm4.29,77.38v.09c1.68,0,3.36,0,5,0q18.34.34,36.7.72c.84,0,1.17-.12,1.23-1.06.28-4.58.63-9.16,1-13.75q.81-11.05,1.64-22.11.84-11.37,1.67-22.73c.32-4.31.62-8.61,1-12.92.06-.76-.13-1-.91-.87a12.25,12.25,0,0,1-2.27.12c-.74,0-1.08.2-1.1,1,0,1.36-.14,2.72-.22,4.07-.52,9-1,18-1.55,27.06-.74,12.53-1.51,25.06-2.23,37.6-.06,1-.4,1.29-1.37,1.25-4-.17-8.08-.29-12.11-.42L14.53,75.28C12,75.2,12,75.19,12.79,77.63a1.27,1.27,0,0,0,1.41,1.06Q35.08,79,55.94,79.31Z"></path><path class="cls-2" d="M13.94,0c0,.84-.61.41-.9.42-2.6,0-5.19,0-7.79,0C4.36.4,3.73.18,3.78,1.76,3.92,5.37,3.54,9,3.35,12.63q-.86,17.06-1.72,34.1C1.3,53.19,1,59.65.67,66.11c0,.28.3,1.17-.64.62Q0,33.91,0,1.08C0,.13.26,0,1.12,0,5.4.05,9.67,0,13.94,0Z"></path><path class="cls-2" d="M0,69.85a1.23,1.23,0,0,1,0,1.92Z"></path><path class="cls-1" d="M11.65,19.37A4,4,0,0,1,14,19c10.23,0,20.45.48,30.68.83,6.67.22,13.34.4,20,.58l19.65.49a2.47,2.47,0,0,1,.82.12c.42.17,1.29-.19,1.16.62-.09.65-.85.41-1.33.39-12.39-.34-24.77-.72-37.15-1q-16.37-.43-32.72-.79A7.44,7.44,0,0,1,11.65,19.37Z"></path><path class="cls-1" d="M16.82,63.49q.3-3.32.62-6.64c.24-2.58.51-5.16.71-7.74.05-.64.15-.71.82-.67,3.86.23,7.74.35,11.6.52s7.42.38,11.13.54c.74,0,1,.36,1,1a90,90,0,0,1-1.13,13.71c-.13.7-.44.79-1.06.71-6.22-.75-12.49-1-18.74-1.29A30.8,30.8,0,0,0,16.82,63.49ZM36,56.78v-.37c-1.51,0-3,.07-4.54,0-.82,0-1,.31-1.11,1-.24,1.7-.47,3.4-.8,5.08-.14.67,0,.78.64.84,3.36.3,6.73.62,10.08,1,.79.09,1-.19,1-.85.18-1.86.32-3.73.59-5.59.14-.92-.23-1.09-1-1.08Zm-9.18,6.28c.48,0,1,0,1.44.1s.59-.08.66-.56c.23-1.74.52-3.47.83-5.19.15-.81-.06-1.13-.93-1.16-3.35-.12-6.69-.3-10-.47-.5,0-.69.08-.73.62q-.24,2.81-.59,5.6c-.09.74.22.85.87.85Q22.54,62.81,26.78,63.06Zm-2.67-7.73v.28c1.64,0,3.27,0,4.91,0,.64,0,.94-.13,1-.81.18-1.42.41-2.84.67-4.25.14-.75,0-1.06-.86-1.09-3.51-.13-7-.3-10.52-.49-.61,0-.85.13-.87.77-.06,1.51-.13,3-.28,4.53-.08.77.09,1.07.91,1.05C20.76,55.3,22.44,55.33,24.11,55.33Zm18-2.18h0c0-.6,0-1.19.09-1.79.09-.91-.2-1.34-1.22-1.36-2.91-.07-5.82-.22-8.72-.37-.6,0-.86.15-.92.76-.15,1.47-.32,2.93-.56,4.39-.13.75.07.93.82.95,2.87.09,5.74.24,8.6.39,1.83.09,1.82.11,1.88-1.78C42,54,42.07,53.55,42.09,53.15Z"></path><path class="cls-1" d="M12.7,11.83A5.19,5.19,0,0,1,15,11.54c10-.12,20,.18,30,.31,13.39.17,26.78.43,40.17.65,1,0,2,0,3,.07.4,0,1.06-.13,1.07.43s-.64.39-1,.44a3.84,3.84,0,0,1-.48,0q-26.43-.37-52.87-.75c-6.52-.1-13-.28-19.54-.44A6.52,6.52,0,0,1,12.7,11.83Z"></path><path class="cls-1" d="M12.32,27A35.44,35.44,0,0,1,19,26.74l30.69.4c.24,0,.48,0,.72,0s.86-.08.85.4-.56.32-.88.32c-9.11-.12-18.22-.2-27.33-.4C19.61,27.4,16.12,27.63,12.32,27Z"></path><path class="cls-1" d="M12.65,68.79a3.09,3.09,0,0,1,1.9-.35c10.27-.12,20.53,0,30.79.15.29,0,.77-.15.78.29s-.49.27-.76.27l-31.51,0C13.47,69.13,13,69.23,12.65,68.79Z"></path><path class="cls-1" d="M13.55,31.33c12,0,24,.37,36.32.81C48.77,32.84,15.58,32.06,13.55,31.33Z"></path><path class="cls-1" d="M49.8,38.77c-12-.1-24-.39-36-1C15,37.23,48.07,38.07,49.8,38.77Z"></path><path class="cls-1" d="M13.54,44.47c12,.09,24,.43,36.3.87C48.73,46.08,14.75,45.19,13.54,44.47Z"></path><path class="cls-1" d="M64,67.72c.25-.44.7-.26,1.06-.26q8.69,0,17.35,0c.29,0,.74-.18.82.23s-.37.43-.67.43c-6,0-12,.24-18.06-.13C64.35,68,64.13,68,64,67.72Z"></path><path class="cls-1" d="M65.11,28.48a2.09,2.09,0,0,1,1.38-.22l16.19.14c.24,0,.48,0,.72,0s.37.13.35.38-.18.24-.34.24h-.6L66.5,28.78A1.93,1.93,0,0,1,65.11,28.48Z"></path><path class="cls-1" d="M63.79,34.13c1.56,0,3-.05,4.38,0l13.38.57c.16,0,.32,0,.48,0s.51.07.45.41-.3.21-.49.21c-.43,0-.87,0-1.31,0l-16-.7A.8.8,0,0,1,63.79,34.13Z"></path><path class="cls-1" d="M64.17,40.32c.68,0,1.37,0,2,0L82,40.94c.3,0,.74-.09.72.37s-.43.25-.68.24q-8.72-.34-17.44-.73a1.9,1.9,0,0,1-.43-.13Z"></path><path class="cls-1" d="M63.8,47.33c1.55,0,3,0,4.38,0,4.46.17,8.92.38,13.37.57a3,3,0,0,1,.6,0c.13,0,.32.16.34.27s-.18.32-.38.32l-1.32,0-16.12-.7A.76.76,0,0,1,63.8,47.33Z"></path><path class="cls-1" d="M64,54.05c1.61,0,3.06,0,4.51,0,4.42.16,8.83.37,13.25.56.16,0,.32,0,.48,0s.51.06.46.4-.3.22-.48.22l-1.32,0-16-.7A.83.83,0,0,1,64,54.05Z"></path><path class="cls-1" d="M64.07,61.22a3.41,3.41,0,0,1,1.8-.26l16.36.62c.3,0,.74-.09.72.37s-.43.25-.68.24l-17.44-.73A5.51,5.51,0,0,1,64.07,61.22Z"></path></g></g></svg> 