<?xml version="1.0" encoding="UTF-8"?> <svg xmlns="http://www.w3.org/2000/svg" viewBox="0 0 80.34 64.49"><defs><style>.cls-1{fill:#161618;}</style></defs><title>quotes</title><g id="Layer_2" data-name="Layer 2"><g id="Layer_0_Image" data-name="Layer 0 Image"><path class="cls-1" d="M49,64.49l.2-.13c-1-1.23-.26-2.35.23-3.47a39.66,39.66,0,0,1,3.08-5.41c3.43-5.33,7-10.57,9.74-16.34a38.17,38.17,0,0,0,2.94-8.95A12,12,0,0,0,65.24,27a1.82,1.82,0,0,0-.75-1.31c-.57-.46-.8-.45-1.29.26-3.11,4.55-7.39,7.16-12.25,4.73a10.77,10.77,0,0,1-6-7.28c-1-4.18-1.31-8.35.17-12.5C48.38,1.9,56.26-2,65.56,1c8.28,2.72,13,8.64,14.37,17.22A27,27,0,0,1,74.44,40,82.6,82.6,0,0,1,63.26,52.12c-3.8,3.31-7.51,6.71-11.27,10.07A9,9,0,0,1,49.48,64c-.31.13-.35.29,0,.48Zm.86-1.63c.36-.31.74-.6,1.09-.91,3.93-3.52,7.82-7.08,11.8-10.55A80.52,80.52,0,0,0,73.88,39.09a25.79,25.79,0,0,0,5-20.76C77.49,9.9,72.77,4.25,64.55,1.79,56.81-.52,50.39,2.3,46.92,9.33c-2.51,5.08-2.33,10.29-.4,15.45a9.1,9.1,0,0,0,6.21,5.57c4.18,1.21,7.45-1.2,10.07-4.9.89-1.26.94-1.38,2.23-.52a2.5,2.5,0,0,1,1,1.57,9.71,9.71,0,0,1-.13,4.39,48.58,48.58,0,0,1-7.17,16.34c-2.59,4-5.12,8.09-7.65,12.16A7.39,7.39,0,0,0,49.82,62.86Z"></path><path class="cls-1" d="M4.81,64.49,5,64.36c-1-1.23-.26-2.35.24-3.47a40.68,40.68,0,0,1,3.07-5.41c3.43-5.33,7-10.57,9.75-16.34A39.12,39.12,0,0,0,21,30.19,11.65,11.65,0,0,0,21.08,27a1.81,1.81,0,0,0-.74-1.31c-.57-.46-.81-.45-1.3.27C15.36,31.33,9.78,34,4,28.65a11,11,0,0,1-3.31-6.1A21,21,0,0,1,1,10.86C4.13,2.18,11.69-1.82,20.61.79c8.72,2.54,13.7,8.52,15.17,17.45A27,27,0,0,1,30.29,40,84.16,84.16,0,0,1,19.11,52.12c-3.8,3.31-7.52,6.71-11.28,10.07A8.83,8.83,0,0,1,5.33,64c-.31.13-.35.29,0,.48Zm.55-1.63a3.24,3.24,0,0,0,1.44-1c3.93-3.52,7.83-7.08,11.8-10.56A79.94,79.94,0,0,0,29.7,39.13a25.88,25.88,0,0,0,5.08-20.76c-1.44-8.49-6.2-14.16-14.47-16.6C15.2.26,10.31.71,6.23,4.61.28,10.29-.28,18.67,2.61,25.31,4.07,28.65,8,31,11.17,30.62c3.55-.39,5.78-2.7,7.65-5.48.23-.34.25-.92.89-.71a2.71,2.71,0,0,1,2.19,2.11A8.92,8.92,0,0,1,22,29.63a41,41,0,0,1-5.49,14.46C14,48.27,11.42,52.42,8.7,56.46A26.93,26.93,0,0,0,5.36,62.86Z"></path></g></g></svg> 