<?xml version="1.0" encoding="UTF-8"?> <svg xmlns="http://www.w3.org/2000/svg" viewBox="0 0 230.33 149.51"><title>speak-soon</title><g id="Layer_2" data-name="Layer 2"><g id="Layer_1-2" data-name="Layer 1"><path d="M57.23,48.9c0-.8-.1-2.3-.1-2.3s6-.6,8-1c-.1-.4.5-1.13.5-1.13L56.93,45.6s-.2-1.4-.4-2.3Q55.63,39,55,34.6a15.75,15.75,0,0,0-.4-2,19.69,19.69,0,0,1,2.2-.7c1.3-.4,2.6-.7,3.9-1.1,4.2-1.5,9.11-3.31,11.9-7.7,1.94-3.05-1.3-7.2-4.8-8.1-5.8-1.6-10.7.1-15.1,3.9a7.9,7.9,0,0,0-1.9,2.5,17.24,17.24,0,0,0-2,8.3c-.1,2.8-.1,2.6-.1,2.6-.3,0-7.9-.4-9.9-.4-6.6-.1-13.3,0-19.9,0,0,0-2.6-.1-3.8-.1a28.08,28.08,0,0,0-4.1.1A43.43,43.43,0,0,0,4.93,33a6.74,6.74,0,0,0-4.7,8.3,11.45,11.45,0,0,0,3.6,5.8,7.07,7.07,0,0,0,9,0,2.14,2.14,0,0,0,.7-3,1,1,0,0,0-.5-.4l-.3.6c-.2.6-.1,1.4-.5,1.8-1.3,1.1-2.7,2-4.6,1.6C4,47.1.53,42.4,1,38.8a5.6,5.6,0,0,1,1.2-2.6c2-2.7,5.1-3.3,8.1-3.4,7-.3,14-.1,21.1-.1,4.2,0,8.4.1,12.6.2,1.2,0,3.5.1,4.7.1,0,0,.4,3.1.5,3.9.5,2.7.9,5.3,1.5,7.9.3,1.3.3,1.4.3,1.4-4.1,1.2-9.9,3.1-14,4.3a26.11,26.11,0,0,0-13,8.9,7.08,7.08,0,0,0-1.5,3.3c-.7,4.3.2,8.1,3.9,10.5s8.2,2.3,12.5,1.7a19.85,19.85,0,0,0,5.9-1.6,16.47,16.47,0,0,0,4.4-3.2,29.87,29.87,0,0,0,7.7-15.2A56,56,0,0,0,57.23,48.9Zm-6.1,7.6a69.1,69.1,0,0,1-3,9.8,8.7,8.7,0,0,1-4.6,5.5c-4.8,2.2-10.7,2.3-13,1.7-3.6-.9-6.7-3.2-7.2-6.8a8.87,8.87,0,0,1,2.3-7.7,26.45,26.45,0,0,1,13-8c2.3-.6,4.5-1.6,6.8-2.3.5-.1.9-.3,1.4-.4A28.7,28.7,0,0,0,51,47.1a20.83,20.83,0,0,1,.2,2.2A24.77,24.77,0,0,1,51.13,56.5Zm4.7-33.3a11.47,11.47,0,0,1,6.9-7.2c3.5-1.45,6.13-.5,8.07,2a4.68,4.68,0,0,1,1,3.3,4.59,4.59,0,0,1-1.42,2.8,38.07,38.07,0,0,1-11.3,6.3c-.4.1-4.5,1.3-4.5,1.3A84.53,84.53,0,0,1,55.83,23.2Z"></path><path d="M215.13,0a13.28,13.28,0,0,0-4.4.9c-4.2,1.6-7.8,4.4-11.2,7.4-4.4,3.9-8.5,8.3-12.6,12.5-1,1-1.4,1.5-1.4,1.5-3-.7-11.8-5.6-12.8-6.2-2.7-1.5-8.8-3.5-13.1-3.3a8.37,8.37,0,0,0-5.5,1.9,9.92,9.92,0,0,0-1.3,14.5c1.8,2.1,4.1,2.2,6.6,1.5s4.7-2.2,5.6-4.7c.2-.7-.3-1.6-.6-2.4-.1-.2-.8-.9-1-.9,0,.2.1,1.2.1,1.4a2.55,2.55,0,0,1-.4,2.9,7.84,7.84,0,0,1-6.8,2.9,2.72,2.72,0,0,1-1.7-.8c-4.5-4.1-4.2-9,.3-13a6.73,6.73,0,0,1,2.9-1.5,14,14,0,0,1,7.6.2c4.8,1.5,6.3,2.3,11.5,5.5a81.41,81.41,0,0,0,7.6,3.6s-.4.5-.6.8-.4.5-.6.8l-13.2,18.3a6.17,6.17,0,0,1-1.8,1.8c-3.9,2.6-7.9,5.1-11.9,7.6a53.86,53.86,0,0,1-5.2,3c-.9.5-2.1,1.5-3,.6-1-1.1-.1-2.3.6-3.3,1.1-1.6,2.3-3,3.5-4.5,1.6-2.1,3.5-4,4.3-6.5.7-2.2-.1-3.2-2.2-2.9-1.1.2-1.6.9-2-1-.3-1.5-1.8-1.9-3.3-2a13.78,13.78,0,0,0-7.4,1.8c-1.7,1-3.5,2-5.1,3.1-3.3,2.3-6.7,4.7-8.2,8.8a2.52,2.52,0,0,0-.2.6c-3.8,2.4-8.5,5.3-12.4,7.5a14.22,14.22,0,0,1-5,1.3c-2.2.2-2.9-.8-2.1-2.9a8.26,8.26,0,0,1,.7-1.3c1.7-2.3,3.5-4.6,5.2-6.9a4.49,4.49,0,0,1,3.1-1.6,50.56,50.56,0,0,0,6.7-1.7,12.21,12.21,0,0,0,3.5-2,3.35,3.35,0,0,0,1-3.7c-.4-1.3-1-1.7-2.8-1.6a15.3,15.3,0,0,0-9.5,2.7,83.28,83.28,0,0,0-6.7,5c-.7.6-1.6,1.3-1.6,1.3s-1.7-.1-2.4-.2a9,9,0,0,1-1.3-.2,3.56,3.56,0,0,0,.6-1c.3-.7.6-1.3.9-2a8.19,8.19,0,0,0,.3-6.5c-1.5-4.1-3.7-6.2-8.1-4.8a34.72,34.72,0,0,0-4.5,1.7c-1.6.8-3,1.8-4.5,2.7a21.45,21.45,0,0,1-2.4,1.8c-.1-.5.5-2.2.4-2.7a9.74,9.74,0,0,0-.2-2.4c-.2-.6-.7-1.4-1.2-1.5a2.23,2.23,0,0,0-1.7.9,4.47,4.47,0,0,0-.8,1.7,20.16,20.16,0,0,0-.7,2.3c-.5,1.9-.9,3-.9,3s-12.1,4.4-19,5.1l.6,1a113.64,113.64,0,0,0,15-3.8c.7-.2,2.6-.7,2.6-.7a14.58,14.58,0,0,1-.7,1.9c-3,6.6-5.9,13.1-8.8,19.7a9.37,9.37,0,0,1-.6,1.2c-1.7.4-4.8,1-6.5,1.4-5.9,1.3-11.2,3.6-15.4,8.1a20.87,20.87,0,0,0-5,7.8,6.6,6.6,0,0,0,5.6,8.3c2.4.2,4.3-1,6.4-1.8a23.87,23.87,0,0,0,9.3-7.3c3.4-4.1,6.3-8.6,9.3-13,.7-1,2.1-3.1,2.1-3.1s2,.2,3.2.4a5.32,5.32,0,0,1,4.3,4.3c.3,1.5,0,2.5-1.5,3.1s-3,.9-4.5,1.4a2.18,2.18,0,0,0-.8.5c.3.2.7.6.9.6a28.47,28.47,0,0,0,3.9-1.1c3.2-1.3,4-3.8,2.2-6.8a6.49,6.49,0,0,0-5.5-3.4c-.6-.1-1.7-.2-1.7-.2L78,62c1.5-2.8,8.1-18.3,8.9-21a4.19,4.19,0,0,1,1.2-1.5,27.11,27.11,0,0,1,9.8-5.8,13.73,13.73,0,0,1,2.8-.5,2.38,2.38,0,0,1,2.7,2.8,8.65,8.65,0,0,1-.6,2.3c-.9,1.8-1.9,3.5-2.7,5.3-.6,1.3-.8,1.7-.8,1.7a61.32,61.32,0,0,0-7.4.5c-4.8.7-9,4.2-8.5,7.5.4,2.7,1.4,4,5.1,3.2.2,0,.3-.1.5-.1a32.85,32.85,0,0,0,12.8-7,22.69,22.69,0,0,1,2.3-1.7s2.3.4,3.2.5c0,0,0,.1-.5.8-.9,1.4-1.7,2.7-2.5,4.1-.9,1.7-.8,4.2.4,5.2s2.7,2.4,4.2,2.6a11,11,0,0,0,6-.8c4.1-2,7.9-4.5,11.8-6.8a11.32,11.32,0,0,0,1.5-1.1,7.43,7.43,0,0,0,.8,1.5c2.1,2.9,4.9,3.8,8.4,3a30.3,30.3,0,0,0,4.2-1.6c2-1,1.8-1.6,3.3.7s3.3,3.7,6.6,1.6c4.3-2.7,8.7-5.4,13-8.1.7-.4,3.7-2.6,3.9-2.6,0,.2-1.5,2.5-1.6,2.7l-5.7,10.8a2.67,2.67,0,0,0,1.4,4,1,1,0,0,0,.9-.1,12.39,12.39,0,0,0,2.8-2.8c2.7-4.5,5.2-9.1,7.9-13.7a27.82,27.82,0,0,1,2.1-2.7,20.55,20.55,0,0,1,.2,3.5c-.1,6.4,1.5,11.6,5.7,16.2a10.87,10.87,0,0,0,6.3,3.6c2.7.4,4.3-.4,5.4-2.9a3.92,3.92,0,0,0-.3-4.5c-1.3-1.4-3-1.4-4.7-1.1a6,6,0,0,0-1.6.8,4.17,4.17,0,0,0,2.4.2,3.4,3.4,0,0,1,3.5,1.5,2.89,2.89,0,0,1-.6,3.3c-1,1.3-2.3,2-4,1.3a14.57,14.57,0,0,1-3.7-2,19.94,19.94,0,0,1-6.3-14.8,45.5,45.5,0,0,0-.4-5.2c-.1-.5-.3-1.3-.3-1.3a10.87,10.87,0,0,1,1.5-.2,27.61,27.61,0,0,0,4-.6,18.44,18.44,0,0,0,5.1-1.9,54.31,54.31,0,0,0,8.9-6.9,4.35,4.35,0,0,0,1.4-2.1,1.72,1.72,0,0,0-.4-.7s-.4.1-.5.3c-2.1,2.8-5.1,4.5-7.9,6.6a16.55,16.55,0,0,1-8.7,3.7,26.35,26.35,0,0,1-2.8.2,11.22,11.22,0,0,1,1.6-2.2c3.6-4.7,7.3-9.3,10.8-14a9.57,9.57,0,0,1,5.9-3.7A64.81,64.81,0,0,0,215,14.5c2.7-1.7,5-3.8,5.5-7.2C220.93,3.6,219.83.1,215.13,0Zm-97.2,45.1c2.4-2.1,4.4-4.6,7.3-6a2.42,2.42,0,0,1,2.7.1,1.68,1.68,0,0,1,.3,2.2,5.27,5.27,0,0,1-1.1,1.5,10.23,10.23,0,0,1-2.2,1.4,69.13,69.13,0,0,1-7.9,2C116.93,46.1,117.83,45.2,117.93,45.1ZM69.43,66.5c-3.4,5.8-6.2,12.1-11.3,16.8-2.3,2.1-4.6,4.3-8,4.5-.2,0-.5,0-.6.1a4.84,4.84,0,0,1-4.7-5.3c.3-2.4,1.6-4.3,3-6.2A26.07,26.07,0,0,1,61.63,67c2.3-.6,4.6-1.2,6.9-1.7l1.9-.4S69.83,65.8,69.43,66.5Zm18.5-11.6c-1,.3-2,.6-2.9-.3s-.6-2-.1-3.1c1.3-3.2,4.2-4,7-4.6a58,58,0,0,1,6.9-.6S91.93,53.6,87.93,54.9Zm57.8-6.3a10.23,10.23,0,0,0-1.4,2.2,5,5,0,0,1-2,2.3,14.36,14.36,0,0,1-7.2,2.4c-2.1,0-3.1-1.4-1.9-3.4a38.69,38.69,0,0,1,4.8-5.9c2.5-2.3,5.3-4.3,8-6.4a24,24,0,0,1,2.7-1.6,1.65,1.65,0,0,1,2.5.5c.9,1.4,1,1.8.1,3C149.53,44.1,147.63,46.3,145.73,48.6Zm71.5-37.7a32.21,32.21,0,0,1-5.6,4.1,65.5,65.5,0,0,1-14.7,5.6c-.6.1-3,1-3,1s1.6-1.9,2-2.4c3.3-3.7,6.6-7.4,10-10.9,1.7-1.8,3.7-3.3,5.6-5a8.64,8.64,0,0,1,1.6-1c3.1-1.4,5.3-.6,6.1,2.2a6.31,6.31,0,0,1-.1,3.6A6.37,6.37,0,0,1,217.23,10.9Z"></path><path d="M111.13,79.2a14.24,14.24,0,0,1,.2-1.9A12.26,12.26,0,0,1,117,69c3.7-2.2,7.6-3.9,12.2-2.7,2.3.6,3.4,2.2,4,4.3s-.7,3.3-2.2,4.4c-3.5,2.7-7.7,3.3-11.8,4.1-.3.1-3.7.7-3.7.7a17.3,17.3,0,0,1,.6,2.5,50.67,50.67,0,0,1,.9,5.4c.1,1.3.2,1.9.2,1.9,1.1-.1,3.9-.7,5-.9,3.2-.7,6.4-1.4,9.6-2.2,2.4-.6,4.8-1.3,7.2-2,3.2-.9,4.6.3,3.6,3.5-1.2,3.6-3.6,6.8-5.1,10.2a21.86,21.86,0,0,1-2.6,4.1,9.73,9.73,0,0,0-1.1,2.3,3.42,3.42,0,0,0,.8,3.5c.8.9,1.9.7,2.9.4a20.15,20.15,0,0,0,8.3-5.2,75,75,0,0,0,6.7-7.1,60,60,0,0,0,3.84-5.92s-.64-.08-1.74-.28c-2.5-.5-4.2-2.1-6-3.8-2.3-2.2-3.1-5.6-1.8-8,2-3.6,5.1-5.1,8.5-4.2a4.13,4.13,0,0,1,1.5.7c2.4,1.8,3.7,7,3,9.9a1.85,1.85,0,0,1-.2.7c-.4,1-2,4.2-2,4.2s1.2-.1,2-.1a58.09,58.09,0,0,0,7.1-1.1c1.4-.3,2.7-.9,4.2-1.1a2.69,2.69,0,0,1,2,.3c.3.3.2,1.4-.1,1.9-1.4,2.6-3,5.1-4.5,7.6a42,42,0,0,0-3,6,4,4,0,0,0,.7,4.7c.9.9,3,.35,4.7-1a38,38,0,0,0,5.24-5.36c2.2-2.6,7.09-9,7.09-9,.3-.4.72-1.14.72-1.14s-.85-.07-1.35-.17c-3.1-.5-5.1-2.6-7-4.7-2.3-2.5-2.2-4.3.3-6.6a9.4,9.4,0,0,1,8.6-2.4,2.75,2.75,0,0,1,2,1.5,10.19,10.19,0,0,1,.6,9c-.5,1.3-1.2,2.9-1.2,2.9s1.8-.3,3.1-.6a39.74,39.74,0,0,0,5.8-2,37.51,37.51,0,0,0,4.4-2.4c.9-.6,1.7-1.7,2.9-.9a2.57,2.57,0,0,1,1,2.8c-.4,1.6-3.6,8-3.7,8.5a24,24,0,0,0,2.9-2.3c3.1-2.4,6.3-4.6,9.2-7.2a30,30,0,0,1,11.2-5.8,26.78,26.78,0,0,1,4.9-1.1,2.48,2.48,0,0,1,2.9,2.5c0,2.9-1.6,5.1-3.2,7.2a99.83,99.83,0,0,0-9.6,15.2c-1.7,3.3-3.6,6.6-5,10.1-1,2.5-2.7,4.5-3.4,8.9a5.36,5.36,0,0,0,.2,2.8c1.2,2.8,4.8,3.5,8,1.9a8.51,8.51,0,0,0,4-3.3,3.48,3.48,0,0,0,.4-3.7c-.4-1.1-.8-2.2-2.2-1.3-.3.1-1.6.7-1.8.5s1.1-1.4,1.4-1.5a2.25,2.25,0,0,1,3.3,1.2c1.1,2.6-.1,5.8-2.9,7.6a11.28,11.28,0,0,1-5.7,2.1,6.21,6.21,0,0,1-4.4-1.5c-3.9-3.1-4.8-7.2-3.9-12,1.1-6.3,3.9-11.8,7.5-17a81.54,81.54,0,0,1,10.1-11.9,35.64,35.64,0,0,0,4.1-5.3,2.17,2.17,0,0,0,.5-1.6,15.62,15.62,0,0,0-2.7.4c-4.9,1.2-8.2,2.5-12.2,5.7-3,2.3-6,4.5-8.8,7s-5.4,5.6-8.1,8.5c-1.1,1.2-2,2.5-3.6,3.1-.9.3-1.5.1-1.8-.9a6.37,6.37,0,0,1,.3-4.7c1.5-2.7,3-5.4,4.5-8.2.4-.7,2.7-3.6,3-4.3-8.2,4.2-13.5,4.1-13.5,4.1a15.84,15.84,0,0,1-1.2,2c-3,3.9-6.08,7.37-9.18,11.07-1.81,1.67-2.42,2.53-3.72,3.53-3.7,2.9-6.9.6-8.8-2.3a8.57,8.57,0,0,1,.1-9.9c1.3-2.6,5.6-6.6,5.8-6.8-.2,0-10.48,1.34-10.48,1.34a10.78,10.78,0,0,1-.8,1.56c-1.3,2.1-2.68,5-4.38,6.83-3.7,3.7-6.58,7.5-11.38,10.1-2.7,1.4-6,2.27-8.56.17-3.9-3.2-4.5-5.3-3.4-9.4a19.08,19.08,0,0,1,2.6-5.6c1.4-2.3,3.2-4.4,4.8-6.6.2-.3.8-.9,1-1.2-.3,0-19.6,4.8-19.6,4.8V94c-.1,7.9-2.4,14.4-8.3,19.5a19.83,19.83,0,0,1-8.9,4.5c-4.5.7-8.6-.2-11.8-3.6a30.21,30.21,0,0,1-2.9-4.1,5.59,5.59,0,0,1,.6-6.5c2.5-3.5,6.1-5.6,9.8-7.5,3.3-1.6,6.7-2.9,10.2-4.2,1.5-.6,4.6-1.3,6.1-1.7,0,0,0-.4-.1-1.5-.3-2.5-.5-5.1-.8-7.6l-.1-1.1h-4.3c-4.4.2-8.7.5-13.1.5a19.23,19.23,0,0,0-10,3c-3.2,1.9-3.6,4.1-1.2,7.1,1.4,1.7,3.4,1.5,4.6-.3.2-.3.2-.6.4-.9a4.62,4.62,0,0,1,.7-.7,3.18,3.18,0,0,1,.3.9,4.21,4.21,0,0,1-2.5,3,3,3,0,0,1-3.4-.4c-3.3-2.9-4-7.3.9-10,3.5-1.9,6.8-2.5,11.2-2.7C97.93,79.8,106.53,79.5,111.13,79.2Zm1.2,14.6v-2a39.16,39.16,0,0,0-4.9,1.3c-3.5,1.3-7,2.6-10.4,4.2a31.73,31.73,0,0,0-9.4,6.9c-2.5,2.7-2,4.4.9,8.5.3.4.6.7.9,1.1,3.8,3.8,11.9,5.5,16.2-1.4a46.55,46.55,0,0,0,5.7-12.4c.3-1.2.6-2.4.8-3.4A26.35,26.35,0,0,0,112.33,93.8Zm3-16.4v1.5c3-.7,7.4-1.4,10.4-2.3a20.22,20.22,0,0,0,5-2.7,2.76,2.76,0,0,0,1.5-2.6,4.27,4.27,0,0,0-4-3.7,13.84,13.84,0,0,0-10.8,5.3A8.2,8.2,0,0,0,115.33,77.4ZM159,84.5a8.77,8.77,0,0,0,0-2.8,9.1,9.1,0,0,0-2.1-5c-1.1-1.5-2.3-1.4-3.2.2a32.18,32.18,0,0,0-2.3,5c-1.6,4.5.2,6.8,4.2,7.7.2,0,1.1.2,1.1.2A26.48,26.48,0,0,0,159,84.5Zm26.8,2.7a9.11,9.11,0,0,0-.1-6.1h0c-.4-1-.9-1.9-2.1-2a2.81,2.81,0,0,0-2.9,1.6,29.24,29.24,0,0,0-1.7,3.6c-.9,2.3-.7,4.4,1.5,5.4a25.67,25.67,0,0,0,4.1.8s.3-.6.4-.9A13.49,13.49,0,0,0,185.83,87.2Z"></path><path d="M154.23,130.9c2.4-2.2,4.8-4.5,7.1-6.8.8-.8,1.4-1.7,2.1-2.5-1.5-.3-2,1-2.8,1.7-2.4,2.2-4.7,4.5-7.1,6.7l-1.3,1.3s-.2-1.1-.3-1.8a29.18,29.18,0,0,0-3.7-10.6c-1.2-1.8-1.8-2.4-2.8-1.9s-1.1,1.1-.4,3.2c1.2,3.8,2.3,7.6,3.5,11.4a24.94,24.94,0,0,1,.6,2.5,12.16,12.16,0,0,1-1.6,1.2c-.6.4-1.4,1.1-2,1.6-3.2,2.8-6.5,5.5-9.6,8.3a28.34,28.34,0,0,0-3.4,4.2c1,.3,1.3-.1,1.4-.2a53.76,53.76,0,0,1,8.8-8.4c1.8-1.4,3.7-2.8,5.5-4.2a10.85,10.85,0,0,1,1.3-.8c.5,1.6,1,4.4,1.5,6.3.1.2.1.3.2.5.8,1.3,1.6,2.7,2.5,4.1a3.11,3.11,0,0,0,.9.7,3.4,3.4,0,0,0-.1-1c-.7-3.7-1.3-7.4-2.1-11.1-.2-1-.5-2.2-.5-2.2S153.53,131.5,154.23,130.9Z"></path></g></g></svg> 