<svg xmlns="http://www.w3.org/2000/svg" viewBox="0 0 226.33 106.05"><defs><style>.cls-1{fill:#1d1d1b;}</style></defs><title>Asset 4</title><g id="Layer_2" data-name="Layer 2"><g id="Layer_1-2" data-name="Layer 1"><path class="cls-1" d="M138,98.53c-6.18,5.68-13.09,8.92-21.49,6.94a18,18,0,0,1-5.53-2.93c-1.71-1.16-4.06-4.35-4.41-6.53-.31-2-.44-5.71,1.84-7.78A19.53,19.53,0,0,1,123,82.76a6,6,0,0,1,2.77.84,3.57,3.57,0,0,1,1.83,2.1c-1.1.21-1.44-.54-2.18-.81a3.35,3.35,0,0,1-.36-.21c-4.54-2.49-15.91,1.89-17.41,6.86-1,3.46.14,6.29,2.62,9.06A15,15,0,0,0,122,104.76c9.72-1.09,16.48-6.78,21-15.42a86.76,86.76,0,0,0,4-9c3.83-9.72,1.79-18.61-3.73-27a33.31,33.31,0,0,0-4.7-5l1.89.38c1.36,1.35,4.6,4.9,5.46,6.55,4.91,9.22,6.32,18.78,1.39,28.51-2.64,5.23-4.89,10.7-9.32,14.8"/><path class="cls-1" d="M203.92,71.26c-6.72.88-13.24-1.85-16.31-7.36a19.73,19.73,0,0,1-1.43-3,9.13,9.13,0,0,1-.54-2.59c0-.34,0-.68,0-1a22.63,22.63,0,0,1,2.8-10.25A16,16,0,0,1,200,39.38a13.82,13.82,0,0,1,3.18.86,13.11,13.11,0,0,1-3,.64c-5.67.62-9.41,4-12,8.93-.85,1.58-2,7.26-1.3,9.86a14.22,14.22,0,0,0,14.26,10.5c9.6,0,22.66-9.18,23.62-21.65a25.83,25.83,0,0,0-.83-8.87,80.12,80.12,0,0,0-5.51-16.82A33.85,33.85,0,0,0,210,11.69C200.22,3.16,188.67.82,176.28,1c-5.8.08-18,2.34-21.47,3.27C144.6,7,134.42,10,125.53,16.05a149.7,149.7,0,0,0-16.91,13.49c-6.59,6-12.71,12.6-19,19-.28.27-3.42,3-3.62,3.35a46,46,0,0,0,4.43-2.37c3.78-1.89,7.37-4.31,11.32-5.67,8.93-3.09,18.13-3.93,27.39-1.54a23.59,23.59,0,0,1,12.17,7.31,3.88,3.88,0,0,1,.52,1.35c-5.16-4.53-10.92-8-17.78-8.54-11.15-.88-21.81,1-31.52,7.16-2.85,1.82-5.93,3.25-8.87,4.92a17.26,17.26,0,0,0-2.38,1.71c-8,6.46-16.31,12.36-25.65,16.39A104.14,104.14,0,0,1,38.3,77.8c-3.48.81-6.12,1-13.74-.53-3.89-.8-7.49-3.13-10.92-5.28C-.35,63.18-3.14,40,3.27,27.42a35.84,35.84,0,0,1,7.4-9.86C21.08,7.88,33.17,2,47.52,2.12c8.09.09,14.86,3.7,20.57,9.35A9.65,9.65,0,0,1,70,14.14a0,0,0,0,1,0,0,16.1,16.1,0,0,1,.56,1.9v.05c1.29,5.77-.8,14.2-4.88,14.84-1-1.57,3.61-5.22,3.54-11a12.35,12.35,0,0,0-2.08-7.18,13.64,13.64,0,0,0-2-2.2,28,28,0,0,0-23.07-7c-12.4,1.77-22.87,7.6-32,16.71C.6,29.78-.53,45.76,4.75,58.56A28,28,0,0,0,20.89,74.63c7.16,2.79,16.4,2.74,21.52,1,8.89-3,17.12-6.07,25-11C79.38,57.13,89.24,47.22,99,37c8.45-8.83,17.4-17.21,28-23.41C135.16,8.85,144,6,152.94,3.47a67.6,67.6,0,0,1,7.95-1.78c1.07-.19,2.55-.5,4.45-.73,17.68-2.84,37.59.25,50.06,14.45a28.93,28.93,0,0,1,4.42,7.27c3.28,7.32,5,12.27,6.14,19.2,2.77,16.36-10.44,27.86-22,29.38"/></g></g></svg>